<svg version="1.1" id="Capa_1" xmlns="http://www.w3.org/2000/svg" xmlns:xlink="http://www.w3.org/1999/xlink" x="0px" y="0px"
	 viewBox="0 0 512 512" style="enable-background:new 0 0 512 512;" xml:space="preserve">
<g fill="#0f0" ><path d="m507.605469 245.894531-56.605469-56.609375v-112.785156c0-8.285156-6.71875-15-15-15h-60c-8.285156 0-15 6.714844-15 15v22.785156l-94.394531-94.390625c-5.855469-5.859375-15.355469-5.859375-21.210938 0l-241 241c-4.289062 4.289063-5.574219 10.738281-3.253906 16.34375 2.324219 5.605469 7.792969 9.261719 13.859375 9.261719h46v226c0 8.28125 6.714844 15 15 15h360c8.28125 0 15-6.71875 15-15v-226h46c6.066406 0 11.535156-3.65625 13.855469-9.261719 2.324219-5.605469 1.039062-12.054687-3.25-16.34375zm-116.605469-154.394531h30v67.785156l-30-30zm45 150c-8.285156 0-15 6.714844-15 15v226h-330v-226c0-8.285156-6.714844-15-15-15h-24.789062l204.789062-204.785156 204.785156 204.785156zm0 0"/><path d="m256 211.5c-44.007812 0-85.425781 17.183594-116.621094 48.378906-5.859375 5.859375-5.859375 15.355469 0 21.210938 5.855469 5.859375 15.355469 5.859375 21.210938 0 25.53125-25.527344 59.417968-39.589844 95.410156-39.589844 40.085938 0 77.871094 17.722656 103.664062 48.625 5.308594 6.363281 14.769532 7.214844 21.128907 1.90625 6.359375-5.3125 7.210937-14.769531 1.902343-21.128906-31.511718-37.75-77.691406-59.402344-126.695312-59.402344zm0 0"/><path d="m256 271.5c-28.007812 0-54.367188 10.929688-74.21875 30.78125-5.859375 5.855469-5.859375 15.355469 0 21.210938 5.855469 5.859374 15.355469 5.859374 21.214844 0 14.183594-14.179688 33.007812-21.992188 53.003906-21.992188 22.269531 0 43.261719 9.847656 57.59375 27.019531 5.308594 6.359375 14.769531 7.210938 21.128906 1.902344s7.210938-14.769531 1.902344-21.128906c-20.046875-24.019531-49.4375-37.792969-80.625-37.792969zm0 0"/><path d="m256 331.5c-24.8125 0-45 20.183594-45 45 0 24.8125 20.1875 45 45 45s45-20.1875 45-45c0-24.816406-20.1875-45-45-45zm0 60c-8.273438 0-15-6.730469-15-15 0-8.273438 6.726562-15 15-15 8.269531 0 15 6.726562 15 15 0 8.269531-6.730469 15-15 15zm0 0"/></g></svg>