<!--Generator: Adobe Illustrator 22.1.0, SVG Export Plug-In--><svg xmlns="http://www.w3.org/2000/svg" width="99.1" height="5.4"><style>.st0{fill:#4d4d4d}.st1{fill:#333}.st3{fill:#d4aa8d}.st4{fill:#f7c6a4}</style><path class="st0" d="M13.4 3.9zM13.4 3.9s0 .1 0 0c0 .3.6.5 1.2.6H14.9c.1.2.2.3.2.5v.2c-.1.1-.3.2-.5.3h-.1 84.7V4c-22 0-63.9 0-85.8-.1z"/><path class="st1" d="M13.3 3.9h.1zM13.4 1.9c0 .5 1.7.5 1.7 1s-1.7.5-1.7 1h85.7v-2H13.4z"/><path d="M14.5.4c.3.1.6.2.6.4 0 .5-1.7.5-1.7 1h85.7V.4H14.5z" fill="#1a1a1a"/><path d="M14.5.4z"/><path class="st3" d="M4 3.2l9.3.7z"/><path class="st4" d="M14.5 5.4c-.1 0-.1 0 0 0zM15.1 5.1V5c0-.2-.2-.3-.4-.4h-.1-.1-.1c-.4-.2-1-.3-1-.6L4 3.2c-.1 0-.2 0-.2.1 0 0 .1.1.2.1l1.7.3h0-.9l-.7-.1c3.1.5 6.2 1.1 9.3 1.6.4.1.7.1 1.1.2h.1c.2-.1.4-.2.5-.3z"/><path class="st3" d="M5.2 2.5l.2.1-.1.1h-.1c-.2.1-.2.1-.3.2 0 .1 0 .1.1.1l.1.1s-.1.1-.2.1H4l9.4.7c0-.5 1.7-.5 1.7-1s-1.7-.5-1.7-1l-8.2.6z"/><path d="M5.1 2.1h.4c.1 0 .1 0 .1.1l-.1.1h-.2c-.1 0-.2.1-.2.1s0 .1.1.1l8.2-.6c0-.5 1.7-.5 1.7-1 0-.2-.3-.3-.6-.4h-.1-.1c-.4.1-.9.2-1.3.2-2.9.5-5.9 1-8.8 1.5l.5-.1h.4z" fill="#b08d75"/><path class="st0" d="M5.3 3.8h.4L4 3.4c-.1 0-.2-.1-.2-.1s.1-.1.2-.1l.9-.1c.1 0 .2 0 .2-.1L5 2.9c-.1.1-.1.1-.1 0 .1-.1.1-.1.3-.1h.1c.1 0 .1 0 .1-.1 0 0 0-.1-.1-.1h-.1c-.1 0-.2-.1-.1-.1 0 0 .1-.1.2-.1h.2c.1 0 .1 0 .1-.1l-.1-.1H4.3l-4.2.7H0h.1l3.9.7.8.1c.1.1.3.1.5.1z"/><path class="st4" d="M14.5 0c-.1 0-.1 0 0 0z"/></svg>