<svg version="1.1" id="Capa_1" xmlns="http://www.w3.org/2000/svg" xmlns:xlink="http://www.w3.org/1999/xlink" x="0px" y="0px"
	 viewBox="0 0 512 512" style="enable-background:new 0 0 512 512;" xml:space="preserve">
<g fill="#0f0" ><path d="m311.996094 194.839844c0-57.847656-47.066406-104.914063-104.914063-104.914063-57.851562 0-104.914062 47.066407-104.914062 104.914063 0 57.851562 47.0625 104.914062 104.914062 104.914062 57.847657 0 104.914063-47.0625 104.914063-104.914062zm-104.914063 74.9375c-41.324219 0-74.941406-33.617188-74.941406-74.9375 0-41.320313 33.617187-74.9375 74.941406-74.9375 41.320313 0 74.9375 33.617187 74.9375 74.9375 0 41.320312-33.617187 74.9375-74.9375 74.9375zm0 0"/><path d="m330.003906 309.882812c2.117188-1.640624 4.675782-2.75 7.488282-3.097656l.054687-.007812c14.277344-1.71875 26.589844-9.847656 33.777344-22.296875 7.046875-12.203125 8.035156-26.589844 2.757812-39.605469l-.332031-.800781c-2.773438-6.492188-.765625-13.984375 4.882812-18.21875 11.503907-8.628907 18.101563-21.824219 18.101563-36.203125s-6.597656-27.570313-18.101563-36.199219l-.089843-.066406c-5.582031-4.246094-7.554688-11.699219-4.792969-18.15625 5.644531-13.222657 4.765625-27.949219-2.425781-40.402344-7.128907-12.34375-19.289063-20.441406-33.40625-22.253906l-.375-.046875c-7.007813-.847656-12.492188-6.332032-13.335938-13.339844-1.722656-14.277344-9.847656-26.589844-22.300781-33.777344-12.433594-7.179687-27.128906-8.070312-40.339844-2.449218l-.011718.003906c-.019532.007812-.03125.011718-.046876.019531h-.003906c-6.496094 2.777344-13.988281.765625-18.222656-4.882813-8.628906-11.503906-21.820312-18.101562-36.199219-18.101562-14.378906 0-27.574219 6.597656-36.203125 18.101562-4.234375 5.648438-11.726562 7.65625-18.222656 4.882813v-.003906c-.015625-.003907-.03125-.011719-.046875-.019531l-.019531-.003907c-13.203125-5.621093-27.902344-4.726562-40.335938 2.453125-12.453125 7.1875-20.578125 19.5-22.300781 33.773438-.84375 7.011718-6.328125 12.496094-13.335937 13.339844l-.371094.046874c-14.121094 1.8125-26.28125 9.910157-33.410156 22.253907-7.1875 12.453125-8.070313 27.179687-2.421876 40.402343 2.757813 6.457032.789063 13.902344-4.789062 18.152344l-.097656.070313c-11.503906 8.628906-18.101563 21.824219-18.101563 36.203125 0 14.375 6.597657 27.570312 18.101563 36.199218 5.648437 4.238282 7.65625 11.730469 4.882812 18.222657l-.308594.726562-.023437.074219c-5.277344 13.015625-4.289063 27.398438 2.757813 39.601562 7.1875 12.453126 19.5 20.582032 33.777343 22.300782l.050781.003906c1.910157.238281 3.699219.828125 5.320313 1.691406l-81.484375 143.359375 71.675781-4.625 32.035157 64.789063 79.222656-139.332032c6.992187 4.296876 15.109375 6.640626 23.648437 6.640626 7.636719 0 14.9375-1.878907 21.398438-5.351563l78.46875 138.046875 32.039062-64.792969 71.671875 4.621094zm-239.8125 106.125-36.175781 2.332032 43.980469-77.371094c3.699218 5.1875 8.511718 9.609375 14.257812 12.925781 12.449219 7.191407 27.179688 8.074219 40.402344 2.425781 2.042969-.871093 4.179688-1.269531 6.289062-1.230468l-52.886718 93.011718zm116.890625-66.675781c-8.347656 0-12.386719-6.402343-12.550781-6.542969-12.601562-16.402343-34.582031-22.179687-53.652344-14.035156-4.460937 1.90625-9.433594 1.609375-13.636718-.816406-4.203126-2.429688-6.945313-6.585938-7.527344-11.40625-2.503906-20.761719-18.75-37.011719-39.515625-39.511719l-.050781-.007812c-4.796876-.59375-8.933594-3.332031-11.351563-7.519531-2.429687-4.207032-2.726563-9.175782-.820313-13.640626l.3125-.726562.023438-.074219c7.714844-19.046875 1.703125-40.800781-14.800781-53.179687-3.882813-2.910156-6.109375-7.367188-6.109375-12.21875 0-4.816406 2.191406-9.238282 6.019531-12.148438l.09375-.074218c16.730469-12.546876 22.679687-34.746094 14.464844-53.976563-1.90625-4.464844-1.609375-9.433594.816406-13.640625 2.425781-4.203125 6.582031-6.945312 11.402344-7.527344l.371093-.046875c20.585938-2.648437 36.65625-18.828125 39.144532-39.46875.582031-4.816406 3.324218-8.972656 7.527344-11.402343 4.207031-2.425782 9.175781-2.722657 13.636718-.816407l.078125.03125c19.210938 8.171875 41.371094 2.214844 53.902344-14.496093 2.914063-3.882813 7.367187-6.109376 12.21875-6.109376 4.855469 0 9.308594 2.226563 12.222656 6.113282 12.53125 16.707031 34.683594 22.660156 53.898438 14.492187l.078125-.03125c4.46875-1.90625 9.4375-1.609375 13.640625.816407 4.203125 2.429687 6.945312 6.585937 7.527343 11.40625 2.484376 20.636718 18.558594 36.816406 39.140626 39.464843l.375.046875c4.816406.582032 8.972656 3.324219 11.398437 7.527344 2.429687 4.207031 2.726563 9.175781.820313 13.640625-8.214844 19.234375-2.269532 41.429687 14.460937 53.976563l.089844.066406c3.832031 2.914062 6.023437 7.339844 6.023437 12.15625 0 4.855468-2.226562 9.308594-6.109375 12.222656-16.5 12.375-22.511719 34.132812-14.796875 53.175781l.332032.804688c1.910156 4.460937 1.609374 9.433593-.816407 13.636719-2.417969 4.1875-6.550781 6.925781-11.347656 7.519531l-.058594.007812c-20.761719 2.5-37.011719 18.75-39.511719 39.515625-.582031 4.816406-3.324218 8.972656-7.527343 11.402344-4.203125 2.425781-9.175781 2.722656-13.640625.816406-19.070313-8.144531-41.046875-2.367187-53.652344 14.035156-.21875.1875-4.042969 6.542969-12.542969 6.542969zm113.890625 66.675781-15.867187 32.089844-52.6875-92.691406c2.96875-.609375 6.128906-.351562 9.085937.914062 13.222656 5.648438 27.949219 4.765626 40.402344-2.425781 4.902344-2.828125 9.121094-6.460937 12.554688-10.6875l42.691406 75.136719zm0 0"/></g></svg>