<!--Generator: Adobe Illustrator 22.1.0, SVG Export Plug-In--><svg xmlns="http://www.w3.org/2000/svg" xmlns:xlink="http://www.w3.org/1999/xlink" width="345.9" height="102.9"><style>.st0{fill:#5a5a5a}.st3{enable-background:new}.st7{fill:#c0bfbd}</style><path class="st0" d="M100 41.4C69.4 50 13.9 99.7 6.5 99.7 0 98.2 2 84.2 6.9 77.9c.1-.2.3-.3.5-.5L5 79.8l-.5.5c-4.9 6.3-6.9 20.3-.4 21.7 7.4 0 62.9-49.7 93.5-58.2 31-8.7 210.2-16.1 219.7-16.5l2.4-2.4c-9.5.4-188.7 7.9-219.7 16.5z"/><linearGradient id="SVGID_1_" gradientUnits="userSpaceOnUse" x1="2.381" y1="55.345" x2="321.118" y2="55.345"><stop offset=".021"/><stop offset=".048" stop-color="#030303"/><stop offset=".07" stop-color="#0d0d0e"/><stop offset=".091" stop-color="#1e1e1f"/><stop offset=".111" stop-color="#363637"/><stop offset=".129" stop-color="#545456"/><stop offset=".132" stop-color="#59595c"/><stop offset=".141" stop-color="#505053"/><stop offset=".18" stop-color="#2d2d2f"/><stop offset=".216" stop-color="#141415"/><stop offset=".249" stop-color="#050505"/><stop offset=".275"/><stop offset=".741"/><stop offset=".764" stop-color="#050505"/><stop offset=".79" stop-color="#121213"/><stop offset=".819" stop-color="#29292b"/><stop offset=".849" stop-color="#49494b"/><stop offset=".862" stop-color="#59595c"/><stop offset=".87" stop-color="#4c4c4f"/><stop offset=".89" stop-color="#313132"/><stop offset=".912" stop-color="#1b1b1c"/><stop offset=".936" stop-color="#0c0c0c"/><stop offset=".963" stop-color="#030303"/><stop offset="1"/></linearGradient><path d="M100 34.5C136.3 24.1 311.9 11.7 321.1 11l-1.5 13.9c-9.4.4-188.6 7.9-219.6 16.5C69.4 50 13.9 99.7 6.5 99.7 0 98.2 2 84.2 6.9 77.9c4.9-6.3 56.7-33 93.1-43.4z" fill="url(#SVGID_1_)"/><path class="st0" d="M245.9 41.4c30.6 8.6 86.1 58.2 93.5 58.2 6.5-1.4 4.5-15.4-.4-21.7-.1-.2-.3-.3-.5-.5l2.4 2.4.5.5c4.9 6.3 6.9 20.3.4 21.7-7.4 0-62.9-49.7-93.5-58.2-31-8.7-210.2-16.1-219.7-16.5l-2.4-2.4c9.5.4 188.7 7.9 219.7 16.5z"/><linearGradient id="SVGID_2_" gradientUnits="userSpaceOnUse" x1="4.503" y1="55.345" x2="323.24" y2="55.345" gradientTransform="matrix(-1 0 0 1 348.01 0)"><stop offset=".021"/><stop offset=".048" stop-color="#030303"/><stop offset=".07" stop-color="#0d0d0e"/><stop offset=".091" stop-color="#1e1e1f"/><stop offset=".111" stop-color="#363637"/><stop offset=".129" stop-color="#545456"/><stop offset=".132" stop-color="#59595c"/><stop offset=".141" stop-color="#505053"/><stop offset=".18" stop-color="#2d2d2f"/><stop offset=".216" stop-color="#141415"/><stop offset=".249" stop-color="#050505"/><stop offset=".275"/><stop offset=".741"/><stop offset=".764" stop-color="#050505"/><stop offset=".79" stop-color="#121213"/><stop offset=".819" stop-color="#29292b"/><stop offset=".849" stop-color="#49494b"/><stop offset=".862" stop-color="#59595c"/><stop offset=".87" stop-color="#4c4c4f"/><stop offset=".89" stop-color="#313132"/><stop offset=".912" stop-color="#1b1b1c"/><stop offset=".936" stop-color="#0c0c0c"/><stop offset=".963" stop-color="#030303"/><stop offset="1"/></linearGradient><path d="M245.9 34.5C209.6 24.1 34 11.7 24.8 11l1.5 13.9c9.4.4 188.6 7.8 219.7 16.5 30.6 8.6 86.1 58.2 93.5 58.2 6.5-1.4 4.5-15.4-.4-21.7-5-6.3-56.8-33-93.2-43.4z" fill="url(#SVGID_2_)"/><path class="st0" d="M40.7 88.3l-2.1-2.1c-.8-.8-1.5-1.6-2.2-2.5-8.6-11-14.1-33.6-15.4-39.1-1.3-5.5-3.4-10.8-4.7-13.1l2.1 2.1c1.3 2.4 3.4 7.6 4.7 13.1 1.3 5.5 6.7 28.1 15.4 39.1.6.9 1.4 1.7 2.2 2.5z"/><g class="st3"><defs><path id="SVGID_3_" class="st3" d="M15.9 31l2.1 2.1c.2.2.3.3.4.5l-2.1-2.1c0-.1-.2-.3-.4-.5z"/></defs><clipPath id="SVGID_4_"><use xlink:href="#SVGID_3_" overflow="visible"/></clipPath><g clip-path="url(#SVGID_4_)"><path d="M18.4 33.6l-2.1-2.1c-.1-.2-.2-.4-.4-.5l2.1 2.1c.2.2.3.3.4.5" fill="#212122"/></g></g><path class="st0" d="M8.2 29.2l-2.1-2.1.6-24.7 2.1 2.1zM138.1 81.9c.2-.2.4-.5.7-.7.1-.1.2-.2.3-.4.3-.4.6-.7.9-1.1.3-.3.6-.7.8-1 .1-.1.2-.2.3-.4.2-.2.4-.5.5-.7.1-.1.2-.3.3-.4.2-.2.3-.4.5-.6.1-.1.2-.3.3-.4.1-.2.3-.4.4-.6.1-.1.2-.3.3-.4.1-.2.3-.4.4-.6.1-.1.2-.3.3-.4.1-.2.3-.4.4-.6.1-.1.1-.2.2-.3l.6-.9c.2-.3.3-.6.5-.9.1-.1.1-.2.2-.3l.3-.6c.1-.1.1-.2.2-.3.1-.2.2-.3.3-.5.1-.1.1-.2.2-.3.1-.2.2-.3.2-.5 0-.1.1-.2.1-.3.1-.1.1-.3.2-.4 0-.1.1-.2.1-.3.1-.2.1-.3.2-.4 0-.1.1-.1.1-.2.1-.2.2-.4.2-.6 2.4-6.3 10.3-26.4 3.1-40.3-.8-1.5-1.8-2.8-3-4.1l-2.1-2.1c1.2 1.2 2.3 2.6 3 4.1 7.2 14-.7 34-3.1 40.3-.1.2-.1.4-.2.6 0 .1-.1.1-.1.2-.1.1-.1.3-.2.4 0 .1-.1.2-.1.3-.1.1-.1.3-.2.4 0 .1-.1.2-.1.3-.1.2-.1.3-.2.5-.1.1-.1.2-.2.3-.1.2-.2.3-.3.5-.1.1-.1.2-.2.3l-.3.6c0 .1-.1.2-.1.3-.3.6-.7 1.2-1.1 1.8-.1.1-.1.2-.2.3-.1.2-.3.4-.4.7-.1.1-.2.2-.2.4-.1.2-.3.4-.4.6-.1.1-.2.3-.3.4-.1.2-.3.4-.4.6-.1.1-.2.3-.3.4-.2.2-.3.4-.5.6-.1.1-.2.3-.3.4-.2.2-.4.5-.6.7l-.3.3-1.8 2.1-.3.3c-.2.3-.5.5-.7.7l-.4.4c-.2.2-.4.5-.7.7l-.4.4-.7.7-.4.4c-.2.2-.5.4-.7.7l-.4.4c-.3.2-.5.5-.8.7-.1.1-.3.2-.4.3-.8.7-1.7 1.4-2.6 2-.1.1-.3.2-.4.3-.3.2-.6.5-1 .7-.2.1-.4.2-.5.4l-.9.6c-.2.1-.4.2-.6.4l-.9.6c-.2.1-.4.2-.6.4-.3.2-.6.4-1 .6l-.6.3c-.4.2-.7.4-1.1.6-.2.1-.4.2-.5.3-.5.3-1.1.5-1.6.8-2.4 1.1-5 2.1-7.8 2.9-.8.2-1.7.4-2.5.6-.5.1-1.1.2-1.6.4-.5.1-.9.2-1.4.3-.5.1-1.1.2-1.6.3-.4.1-.9.2-1.3.2-.6.1-1.1.2-1.7.2-.4.1-.9.1-1.3.2-.6.1-1.2.1-1.8.2-.4 0-.8.1-1.1.1h-.5c-.7.1-1.4.1-2.1.1h-.8c-.6 0-1.2.1-1.8.1H84.5c-.5 0-1 0-1.5-.1h-.3c-.5 0-1-.1-1.5-.1h-.3c-.3 0-.7 0-1-.1h-.4c-.4 0-.9-.1-1.3-.1h-.1c-.4 0-.7-.1-1.1-.1h-.3c-.3 0-.7-.1-1-.1h-.2c-.4 0-.8-.1-1.1-.1h-.3c-.3 0-.6-.1-.9-.1H73c-.3 0-.7-.1-1-.1h-.1c-.3 0-.6-.1-.9-.1h-.2c-.3 0-.5-.1-.8-.1h-.1c-.3 0-.6-.1-.8-.1h-.2c-.2 0-.4-.1-.6-.1h-.2c-.2 0-.4-.1-.6-.1-.2 0-.4-.1-.5-.1h-.1c-.1 0-.3-.1-.4-.1h-.1c-.1 0-.3-.1-.4-.1H65.4c-.2 0-.3-.1-.4-.1-.2-.1-.5-.1-.7-.2-.6-.1-1.2-.3-1.7-.4-.2-.1-.4-.1-.6-.2-.7-.2-1.4-.4-2-.6-.1 0-.1 0-.2-.1-.6-.2-1.2-.4-1.8-.7-.2-.1-.3-.1-.5-.2-.5-.2-1.1-.5-1.6-.7-.1 0-.2-.1-.3-.1-.5-.3-1.1-.5-1.6-.8-.1-.1-.3-.1-.4-.2-.4-.2-.7-.4-1.1-.6-.2-.1-.3-.2-.5-.3-.3-.2-.7-.4-1-.6-.2-.1-.3-.2-.5-.3-.4-.3-.8-.5-1.2-.8-.1 0-.1-.1-.2-.1-.4-.3-.9-.6-1.3-1-.1-.1-.2-.2-.4-.3-.3-.2-.6-.5-.9-.7-.1-.1-.3-.2-.4-.3-.3-.2-.6-.5-.8-.7L45 86c-.4-.3-.7-.7-1.1-1l2.1 2.1c.3.3.7.7 1.1 1l.3.3c.3.2.5.5.8.7.1.1.3.2.4.3.3.2.6.5.9.7.1.1.2.2.4.3.4.3.8.6 1.3 1 .1 0 .1.1.2.1.4.3.8.5 1.2.8.1.1.3.2.5.3.3.2.7.4 1 .6.2.1.3.2.5.3.4.2.7.4 1.1.6.1.1.3.2.4.2.5.3 1 .5 1.6.8h.1c.1 0 .2.1.2.1.5.2 1 .5 1.5.7.2.1.4.1.5.2.6.2 1.1.4 1.7.7.1 0 .1.1.2.1.7.2 1.3.4 2 .6.2.1.4.1.6.2.6.2 1.1.3 1.7.4.1 0 .2.1.4.1.1 0 .2.1.3.1h.1c.1 0 .1 0 .2.1h.2c.2.1.5.1.8.2h.2c.1 0 .2 0 .3.1.1 0 .2 0 .3.1.1 0 .2 0 .4.1.1 0 .3.1.4.1.1 0 .2 0 .3.1.1 0 .3.1.4.1.1 0 .2 0 .3.1.2 0 .5.1.7.1h.3c.2 0 .4.1.6.1.1 0 .2 0 .3.1.2 0 .5.1.7.1h.2c.3 0 .6.1.9.1h.3c.2 0 .5.1.7.1h.3c.3 0 .7.1 1.1.1h.3c.3 0 .6.1.9.1h.4c.3 0 .7.1 1 .1h.2c.4 0 .8.1 1.2.1h.4c.3 0 .7 0 1 .1h.4c.5 0 1 .1 1.5.1h.3c.5 0 1 0 1.4.1H92.9c.6 0 1.2 0 1.8-.1h.8c.7 0 1.4-.1 2.1-.1h.6c.3 0 .6-.1 1-.1.6-.1 1.2-.1 1.9-.2.4 0 .8-.1 1.2-.2l1.8-.3c.4-.1.8-.1 1.2-.2l1.8-.3c.4-.1.9-.2 1.3-.3.6-.1 1.1-.2 1.7-.4.1 0 .3-.1.4-.1l2.1-.6c2.5-.7 4.8-1.6 7-2.5.3-.1.5-.2.8-.3.6-.3 1.1-.5 1.6-.8.2-.1.4-.2.5-.3.4-.2.7-.4 1.1-.6l.6-.3c.3-.2.7-.4 1-.6.2-.1.4-.2.6-.4l.9-.6c.2-.1.4-.2.6-.4l.9-.6c.2-.1.4-.2.5-.4.3-.2.6-.5 1-.7.1-.1.3-.2.4-.3.4-.3.9-.7 1.3-1 .4-.3.8-.7 1.2-1 .1-.1.3-.2.4-.3.3-.2.5-.5.8-.7.2-.1.3-.3.5-.4.2-.2.5-.4.7-.7.2-.1.3-.3.5-.4.2-.2.4-.4.7-.6l.4-.4c.2-.2.4-.4.6-.7.6-.5.7-.6.9-.8zM173.3 15.8H161c-.9-.4-17-7.3-25.9-9.4-.2 0-.3-.1-.5-.1h-.2c-.3-.1-.6-.1-.9-.2-.1 0-.3-.1-.4-.1-.3-.1-.6-.1-.9-.2-.1 0-.3-.1-.4-.1-.4-.1-.8-.2-1.3-.3h-.2c-.4-.1-.9-.2-1.4-.3-.2 0-.3-.1-.5-.1-.5-.1-.9-.2-1.4-.3h-.3l-1.8-.3c-.2 0-.3-.1-.5-.1-.5-.1-1.1-.2-1.6-.3-.1 0-.3 0-.4-.1l-2.1-.3c-.2 0-.3 0-.5-.1-.6-.1-1.2-.2-1.9-.3-.2 0-.4-.1-.6-.1l-2.4-.3h-.4c-.7-.1-1.5-.2-2.2-.3-.2 0-.5-.1-.7-.1-1.8-.2-3.7-.4-5.6-.6-.2 0-.5 0-.7-.1l-2.7-.3h-.4c-1-.1-2.1-.2-3.2-.3-.2 0-.5 0-.7-.1-.9-.1-1.9-.1-2.9-.2H94.8c-.6 0-1.1-.1-1.7-.1-.4 0-.7 0-1.1-.1-.6 0-1.1-.1-1.7-.1-.4 0-.8 0-1.1-.1-.6 0-1.1-.1-1.7-.1-.4 0-.8 0-1.2-.1-.6 0-1.2 0-1.7-.1h-1.3c-.6 0-1.2 0-1.8-.1H70.6c-4.2 0-8.7.1-13.3.2-1 0-2 .1-2.9.1H54c-1 0-1.9.1-2.8.1H51c-16.1.5-26.4.9-33 1.3h-.1c-.4 0-.8 0-1.1.1h-.1c-.7 0-1.4.1-2 .1h-.1c-.3 0-.6 0-.9.1H9.5 9h-.5-.4-.8H7h-.2-.1-.1l2.1 2.1c.1 0 .4 0 1-.1H10.5c1.5-.1 4-.3 8.2-.5 1.1-.1 2.4-.1 3.8-.2h.1c.5 0 .9 0 1.4-.1.5 0 1 0 1.5-.1h.1c.5 0 1 0 1.5-.1h.2c.5 0 1.1 0 1.6-.1h.2c.5 0 1.1 0 1.7-.1h.1c.6 0 1.2 0 1.8-.1h.3c.6 0 1.2 0 1.9-.1h.2c.6 0 1.2 0 1.8-.1h.3c.6 0 1.3 0 1.9-.1h.6c.7 0 1.3 0 2-.1h.4c.7 0 1.3 0 2-.1h.4c.7 0 1.5-.1 2.2-.1h.6c.8 0 1.6-.1 2.4-.1h.1c.8 0 1.6-.1 2.4-.1h.7c.8 0 1.7-.1 2.6-.1h.5c.9 0 1.9-.1 2.9-.1 4.7-.1 9.1-.2 13.3-.2H85c.5 0 .9 0 1.4.1.5 0 1 0 1.6.1.5 0 1 0 1.5.1.5 0 1 0 1.4.1.5 0 1 .1 1.5.1.4 0 .9 0 1.3.1.5 0 1 .1 1.5.1.4 0 .8 0 1.2.1.3 0 .6 0 1 .1.9.1 1.7.1 2.5.2.3 0 .6 0 1 .1 1 .1 2.1.2 3 .3.2 0 .4 0 .6.1.8.1 1.6.1 2.4.2.3 0 .6.1.9.1.9.1 1.8.2 2.6.3h.3c.9.1 1.7.2 2.5.3.3 0 .5.1.8.1l2.1.3c.2 0 .3 0 .5.1.8.1 1.6.2 2.3.3.2 0 .4.1.7.1.6.1 1.2.2 1.7.3.2 0 .4.1.6.1.7.1 1.4.2 2 .3.2 0 .3.1.5.1l1.5.3c.2 0 .4.1.5.1l1.8.3c.1 0 .2 0 .3.1.5.1 1 .2 1.4.3.1 0 .3.1.4.1l1.5.3c.5.1 1 .2 1.4.3.1 0 .2 0 .3.1l1.2.3 1.2.3c.2 0 .4.1.5.1 8.9 2.1 25.1 9.1 25.9 9.4h12.3l-1.3-1.9zM208.6 81.9c-.2-.2-.4-.5-.7-.7-.1-.1-.2-.2-.3-.4-.3-.4-.6-.7-.9-1.1-.3-.3-.6-.7-.8-1-.1-.1-.2-.2-.3-.4-.2-.2-.4-.5-.5-.7-.1-.1-.2-.3-.3-.4-.2-.2-.3-.4-.5-.6-.1-.1-.2-.3-.3-.4-.1-.2-.3-.4-.4-.6-.1-.1-.2-.3-.3-.4-.1-.2-.3-.4-.4-.6-.1-.1-.2-.3-.3-.4-.1-.2-.3-.4-.4-.6-.1-.1-.1-.2-.2-.3l-.6-.9c-.2-.3-.3-.6-.5-.9-.1-.1-.1-.2-.2-.3l-.3-.6c-.1-.1-.1-.2-.2-.3-.1-.2-.2-.3-.3-.5-.1-.1-.1-.2-.2-.3-.1-.2-.2-.3-.2-.5 0-.1-.1-.2-.1-.3-.1-.1-.1-.3-.2-.4 0-.1-.1-.2-.1-.3-.1-.2-.1-.3-.2-.4 0-.1-.1-.1-.1-.2-.1-.2-.2-.4-.2-.6-2.4-6.3-10.3-26.4-3.1-40.3.8-1.5 1.8-2.8 3-4.1l2.1-2.1c-1.2 1.2-2.3 2.6-3 4.1-7.2 14 .7 34 3.1 40.3.1.2.1.4.2.6 0 .1.1.1.1.2.1.1.1.3.2.4 0 .1.1.2.1.3.1.1.1.3.2.4 0 .1.1.2.1.3.1.2.1.3.2.5.1.1.1.2.2.3.1.2.2.3.3.5.1.1.1.2.2.3l.3.6c0 .1.1.2.1.3.3.6.7 1.2 1.1 1.8.1.1.1.2.2.3.1.2.3.4.4.7.1.1.2.2.2.4.1.2.3.4.4.6.1.1.2.3.3.4.1.2.3.4.4.6.1.1.2.3.3.4.2.2.3.4.5.6.1.1.2.3.3.4.2.2.4.5.6.7l.3.3 1.8 2.1.3.3c.2.3.5.5.7.7l.4.4c.2.2.4.5.7.7l.4.4.7.7.4.4c.2.2.5.4.7.7l.4.4c.3.2.5.5.8.7.1.1.3.2.4.3.8.7 1.7 1.4 2.6 2 .1.1.3.2.4.3.3.2.6.5 1 .7.2.1.4.2.5.4l.9.6c.2.1.4.2.6.4l.9.6c.2.1.4.2.6.4.3.2.6.4 1 .6l.6.3c.4.2.7.4 1.1.6.2.1.4.2.5.3.5.3 1.1.5 1.6.8 2.4 1.1 5 2.1 7.8 2.9.8.2 1.7.4 2.5.6.5.1 1.1.2 1.6.4.5.1.9.2 1.4.3.5.1 1.1.2 1.6.3.4.1.9.2 1.3.2.6.1 1.1.2 1.7.2.4.1.8.1 1.3.2.6.1 1.2.1 1.8.2.4 0 .8.1 1.1.1h.5c.7.1 1.4.1 2.1.1h.8c.6 0 1.2.1 1.8.1H262.2c.5 0 1 0 1.5-.1h.3c.5 0 1-.1 1.5-.1h.3c.3 0 .7 0 1-.1h.4c.4 0 .9-.1 1.3-.1h.1c.4 0 .7-.1 1.1-.1h.3c.3 0 .7-.1 1-.1h.2c.4 0 .8-.1 1.1-.1h.3c.3 0 .6-.1.9-.1h.2c.3 0 .7-.1 1-.1h.1c.3 0 .6-.1.9-.1h.2c.3 0 .5-.1.8-.1h.1c.3 0 .6-.1.8-.1h.2c.2 0 .4-.1.6-.1h.2c.2 0 .4-.1.6-.1.2 0 .4-.1.5-.1h.1c.1 0 .3-.1.4-.1h.1c.1 0 .3-.1.4-.1H281.3c.2 0 .3-.1.4-.1.2-.1.5-.1.7-.2.6-.1 1.2-.3 1.7-.4.2-.1.4-.1.6-.2.7-.2 1.4-.4 2-.6.1 0 .1 0 .2-.1.6-.2 1.2-.4 1.8-.7.2-.1.3-.1.5-.2.5-.2 1.1-.5 1.6-.7.1 0 .2-.1.3-.1.5-.3 1.1-.5 1.6-.8.1-.1.3-.1.4-.2.4-.2.7-.4 1.1-.6.2-.1.3-.2.5-.3.3-.2.7-.4 1-.6.2-.1.3-.2.5-.3.4-.3.8-.5 1.2-.8.1 0 .1-.1.2-.1.4-.3.9-.6 1.3-1 .1-.1.2-.2.4-.3.3-.2.6-.5.9-.7.1-.1.3-.2.4-.3.3-.2.6-.5.8-.7l.3-.3c.4-.3.7-.7 1.1-1l-2.1 2.1c-.3.3-.7.7-1.1 1l-.3.3c-.3.2-.5.5-.8.7-.1.1-.3.2-.4.3-.3.2-.6.5-.9.7-.1.1-.2.2-.4.3-.4.3-.8.6-1.3 1-.1 0-.1.1-.2.1-.4.3-.8.5-1.2.8-.1.1-.3.2-.5.3-.3.2-.6.4-1 .6-.2.1-.3.2-.5.3-.4.2-.7.4-1.1.6-.1.1-.3.2-.4.2-.5.3-1 .5-1.6.8h-.1c-.1 0-.2.1-.2.1-.5.2-1 .5-1.5.7-.2.1-.4.1-.5.2-.6.2-1.1.4-1.7.7-.1 0-.1.1-.2.1-.6.2-1.3.4-2 .6-.2.1-.4.1-.6.2-.6.2-1.1.3-1.7.4-.1 0-.2.1-.4.1-.1 0-.2.1-.3.1h-.1c-.1 0-.1 0-.2.1h-.1-.1c-.2.1-.5.1-.8.2h-.2c-.1 0-.2 0-.3.1-.1 0-.2 0-.3.1-.1 0-.2 0-.4.1-.1 0-.3.1-.4.1-.1 0-.2 0-.3.1-.1 0-.3.1-.4.1-.1 0-.2 0-.3.1-.2 0-.5.1-.7.1h-.3c-.2 0-.4.1-.6.1-.1 0-.2 0-.3.1-.2 0-.5.1-.7.1h-.2c-.3 0-.6.1-.9.1h-.3c-.2 0-.5.1-.7.1h-.3c-.3 0-.7.1-1.1.1h-.3c-.3 0-.6.1-.9.1h-.4c-.3 0-.7.1-1 .1h-.2c-.4 0-.8.1-1.2.1h-.4c-.3 0-.7 0-1 .1h-.3-.1c-.5 0-1 .1-1.5.1h-.3c-.5 0-1 0-1.4.1H253.8c-.6 0-1.2 0-1.8-.1h-.8c-.7 0-1.4-.1-2.1-.1h-.5-.1c-.3 0-.6-.1-1-.1-.6-.1-1.2-.1-1.9-.2-.4 0-.8-.1-1.2-.2l-1.8-.3c-.4-.1-.8-.1-1.2-.2-.6-.1-1.2-.2-1.7-.3-.4-.1-.9-.2-1.3-.3-.6-.1-1.1-.2-1.7-.4-.1 0-.3-.1-.4-.1l-2.1-.6c-2.5-.7-4.8-1.6-7-2.5-.3-.1-.5-.2-.8-.3-.6-.3-1.1-.5-1.6-.8-.2-.1-.4-.2-.5-.3-.4-.2-.7-.4-1.1-.6l-.6-.3c-.3-.2-.7-.4-1-.6-.2-.1-.4-.2-.6-.4l-.9-.6c-.2-.1-.4-.2-.6-.4l-.9-.6c-.2-.1-.4-.2-.5-.4-.3-.2-.6-.5-1-.7-.1-.1-.3-.2-.4-.3-.4-.3-.9-.7-1.3-1-.4-.3-.8-.7-1.2-1-.1-.1-.3-.2-.4-.3-.3-.2-.5-.5-.8-.7-.2-.1-.3-.3-.5-.4-.2-.2-.5-.4-.7-.7-.2-.1-.3-.3-.5-.4-.2-.2-.4-.4-.7-.6l-.4-.4c-.2-.2-.4-.4-.6-.7-.7-.5-.9-.6-1-.8z"/><path class="st0" d="M173.4 15.8h12.3c.9-.4 17-7.3 25.9-9.4.2 0 .3-.1.5-.1h.2c.3-.1.6-.1.9-.2.1 0 .3-.1.4-.1.3-.1.6-.1.9-.2.1 0 .3-.1.4-.1.4-.1.8-.2 1.3-.3h.2c.4-.1.9-.2 1.4-.3.2 0 .3-.1.5-.1.5-.1.9-.2 1.4-.3h.3l1.8-.3c.2 0 .3-.1.5-.1.5-.1 1.1-.2 1.6-.3.1 0 .3 0 .4-.1l2.1-.3c.2 0 .3 0 .5-.1.6-.1 1.2-.2 1.9-.3.2 0 .4-.1.6-.1l2.4-.3h.4c.7-.1 1.5-.2 2.2-.3.2 0 .4-.1.7-.1 1.8-.2 3.6-.4 5.6-.6.2 0 .5 0 .7-.1l2.7-.3h.4c1-.1 2.1-.2 3.2-.3.2 0 .5 0 .7-.1.9-.1 1.9-.1 2.9-.2H251.9c.6 0 1.1-.1 1.7-.1.4 0 .7 0 1.1-.1.6 0 1.1-.1 1.7-.1.4 0 .8 0 1.1-.1.6 0 1.1-.1 1.7-.1.4 0 .8 0 1.2-.1.6 0 1.2 0 1.7-.1h1.3c.6 0 1.2 0 1.8-.1h10.9c4.2 0 8.7.1 13.3.2 1 0 2 .1 2.9.1h.4c1 0 1.9.1 2.8.1h.2c15.8.5 26.1.9 32.8 1.3h.1c.4 0 .8 0 1.1.1h.1c.7 0 1.4.1 2 .1h.1c.3 0 .6 0 .9.1h3.1l1.8 2.4c-.1 0-.4 0-1-.1H336.4h-.4-.1c-1.5-.1-4-.3-8.2-.5-1.1-.1-2.4-.1-3.8-.2h-.1c-.5 0-.9 0-1.4-.1-.5 0-1 0-1.5-.1h-.1c-.5 0-1 0-1.5-.1h-.2c-.5 0-1.1 0-1.6-.1h-.2c-.5 0-1.1 0-1.7-.1h-.1c-.6 0-1.2 0-1.8-.1h-.3c-.6 0-1.2 0-1.9-.1h-.2c-.6 0-1.2 0-1.8-.1h-.3c-.6 0-1.3 0-1.9-.1h-.6c-.7 0-1.3 0-2-.1h-.4c-.7 0-1.3 0-2-.1h-.4c-.7 0-1.5-.1-2.2-.1h-.6c-.8 0-1.6-.1-2.4-.1h-.1c-.8 0-1.6-.1-2.4-.1h-.7c-.8 0-1.7-.1-2.6-.1h-.5c-.9 0-1.9-.1-2.9-.1-4.7-.1-9.1-.2-13.3-.2H261.4c-.5 0-.9 0-1.4.1-.5 0-1 0-1.6.1-.5 0-1 0-1.5.1-.5 0-1 0-1.4.1-.5 0-1 .1-1.5.1-.4 0-.9 0-1.3.1-.5 0-1 .1-1.5.1-.4 0-.8 0-1.2.1-.3 0-.6 0-1 .1-.9.1-1.7.1-2.5.2-.3 0-.6 0-1 .1-1 .1-2.1.2-3 .3-.2 0-.4 0-.6.1-.8.1-1.6.1-2.4.2-.3 0-.6.1-.9.1-.9.1-1.8.2-2.6.3h-.3c-.9.1-1.7.2-2.5.3-.3 0-.5.1-.8.1l-2.1.3c-.2 0-.3 0-.5.1-.8.1-1.6.2-2.3.3-.2 0-.4.1-.7.1-.6.1-1.2.2-1.7.3-.2 0-.4.1-.6.1-.7.1-1.4.2-2 .3-.2 0-.3.1-.5.1l-1.5.3c-.2 0-.4.1-.5.1l-1.8.3c-.1 0-.2 0-.3.1-.5.1-1 .2-1.4.3-.1 0-.3.1-.4.1l-1.5.3c-.5.1-1 .2-1.4.3-.1 0-.2 0-.3.1l-1.2.3-1.2.3c-.2 0-.4.1-.5.1-8.9 2.1-25.1 9.1-25.9 9.4h-12.3l1.6-2.2z"/><linearGradient id="SVGID_5_" gradientUnits="userSpaceOnUse" x1="8.194" y1="52.488" x2="338.485" y2="52.488"><stop offset=".021"/><stop offset=".048" stop-color="#030303"/><stop offset=".07" stop-color="#0d0d0e"/><stop offset=".091" stop-color="#1e1e1f"/><stop offset=".111" stop-color="#363637"/><stop offset=".129" stop-color="#545456"/><stop offset=".132" stop-color="#59595c"/><stop offset=".141" stop-color="#505053"/><stop offset=".18" stop-color="#2d2d2f"/><stop offset=".216" stop-color="#141415"/><stop offset=".249" stop-color="#050505"/><stop offset=".275"/><stop offset=".741"/><stop offset=".764" stop-color="#050505"/><stop offset=".79" stop-color="#121213"/><stop offset=".819" stop-color="#29292b"/><stop offset=".849" stop-color="#49494b"/><stop offset=".862" stop-color="#59595c"/><stop offset=".87" stop-color="#4c4c4f"/><stop offset=".89" stop-color="#313132"/><stop offset=".912" stop-color="#1b1b1c"/><stop offset=".936" stop-color="#0c0c0c"/><stop offset=".963" stop-color="#030303"/><stop offset="1"/></linearGradient><path d="M337.9 4.5c-.4 0-8.4-1-50.4-2.2-4.7-.1-9.1-.2-13.3-.2-35.6 0-56.6 4.5-64.6 6.4-8.9 2.1-25.1 9.1-25.9 9.4H163c-.9-.4-17-7.3-25.9-9.4-8-1.9-29-6.4-64.6-6.4-4.2 0-8.7.1-13.3.2-42 1.3-50 2.2-50.4 2.2l-.6 24.7c.3.1 5.5 1.3 8.5 3 1.3 2.6 3.2 7.4 4.4 12.6 1.3 5.5 6.7 28.1 15.4 39.1.7.9 1.4 1.7 2.2 2.5l2.1 2.1-.2-.2c9.3 9.5 26.9 14.5 45.4 14.8h4.4c18.7 0 36.8-2.3 50.3-17 8.6-9.3 11.2-15.5 14.8-22.4 3.2-6.3 8-21.3 8.2-22-.2-.2-3.2-3.8-1.3-7.3 1.7-3.1 3.7-3.4 6-3.7 1.4-.2 3.6-.3 5.1-.4 1.6.1 3.7.3 5.1.4 2.4.3 4.3.5 6 3.7 1.9 3.6-1.1 7.2-1.3 7.3.2.8 5 15.7 8.2 22 3.6 7 6.2 13.1 14.8 22.4 13.4 14.6 31.5 17 50.3 17h4.4c19.9-.3 38.8-6 47.4-17.1 8.6-11 14.1-33.6 15.4-39.1 1.3-5.5 3.4-10.8 4.7-13.1 1.3-2.4 9.8-4.4 10.2-4.5l-.8-24.8zM17.4 32.6c.5.3.9.7 1.1 1.1l-1.1-1.1zm22 54.4c.1.1.2.2.3.4 0-.2-.2-.3-.3-.4zM148 66.8c-2.4 6.3-12.9 24.2-35.1 30.5-7.7 2.2-15.7 2.9-22.7 2.9-13.2 0-22.8-2.4-23.3-2.5C40.7 91.8 35 67.9 34.7 66.6c-8.8-37.8-1.6-43.7.9-47.2C46.7 9.1 65.7 6.7 81.3 6.7c12.5 0 22.8 1.6 24.8 1.8 6.1.8 37.7 3.8 45 17.9 7.2 14-.7 34.1-3.1 40.4zm164-.2c-.3 1.3-6 25.2-32.2 31.1-.5.1-10.1 2.5-23.3 2.5-7 0-15-.7-22.7-2.9-22.3-6.3-32.8-24.2-35.2-30.5-2.4-6.3-10.3-26.4-3.1-40.3 7.3-14.1 38.9-17.1 45-17.9 2-.3 12.3-1.8 24.8-1.8C281 6.7 300 9.1 311 19.4c2.5 3.5 9.7 9.4 1 47.2z" fill="url(#SVGID_5_)"/><path class="st7" d="M18.3 11.2c0 1.3-1.1 2.4-2.4 2.4-1.3 0-2.4-1.1-2.4-2.4 0-1.3 1.1-2.4 2.4-2.4 1.3 0 2.4 1.1 2.4 2.4zM18.3 21.1c0 1.3-1.1 2.4-2.4 2.4-1.3 0-2.4-1.1-2.4-2.4 0-1.3 1.1-2.4 2.4-2.4 1.3 0 2.4 1.1 2.4 2.4z"/><path class="st7" d="M19.5 11.2c0 1.3-1.1 2.4-2.4 2.4-1.3 0-2.4-1.1-2.4-2.4 0-1.3 1.1-2.4 2.4-2.4 1.3 0 2.4 1.1 2.4 2.4zM19.5 21.1c0 1.3-1.1 2.4-2.4 2.4-1.3 0-2.4-1.1-2.4-2.4 0-1.3 1.1-2.4 2.4-2.4 1.3 0 2.4 1.1 2.4 2.4z"/><linearGradient id="SVGID_6_" gradientUnits="userSpaceOnUse" x1="159.789" y1="24.611" x2="186.89" y2="24.611"><stop offset="0" stop-color="#221f1f" stop-opacity="0"/><stop offset=".088" stop-color="#252222" stop-opacity=".164"/><stop offset=".161" stop-color="#2f2d2d" stop-opacity=".301"/><stop offset=".229" stop-color="#413e3e" stop-opacity=".428"/><stop offset=".294" stop-color="#595656" stop-opacity=".55"/><stop offset=".356" stop-color="#787676" stop-opacity=".667"/><stop offset=".417" stop-color="#9e9d9d" stop-opacity=".781"/><stop offset=".476" stop-color="#cbcaca" stop-opacity=".89"/><stop offset=".533" stop-color="#fefdfd" stop-opacity=".997"/><stop offset=".534" stop-color="#fff"/><stop offset=".603" stop-color="#c9c8c8" stop-opacity=".852"/><stop offset=".676" stop-color="#969595" stop-opacity=".695"/><stop offset=".749" stop-color="#6d6b6b" stop-opacity=".539"/><stop offset=".819" stop-color="#4c4a4a" stop-opacity=".39"/><stop offset=".885" stop-color="#353232" stop-opacity=".247"/><stop offset=".947" stop-color="#272424" stop-opacity=".114"/><stop offset="1" stop-color="#221f1f" stop-opacity="0"/></linearGradient><path d="M186.9 18.6l-13.8.1-13.3-.1 3 12.1s4.7-1.5 10.5-1.5c5.1-.1 10.1 1.4 10.1 1.4l3.5-12z" opacity=".15" fill="url(#SVGID_6_)"/><linearGradient id="SVGID_7_" gradientUnits="userSpaceOnUse" x1="30.632" y1="52.747" x2="154.343" y2="52.747"><stop offset="0" stop-color="#6d6f70"/><stop offset=".16" stop-color="#6f7172"/><stop offset=".234" stop-color="#777879"/><stop offset=".291" stop-color="#838586"/><stop offset=".34" stop-color="#969798"/><stop offset=".382" stop-color="#aeafaf"/><stop offset=".421" stop-color="#cbcccc"/><stop offset=".455" stop-color="#ededed"/><stop offset=".471" stop-color="#fff"/><stop offset=".48" stop-color="#f7f7f7"/><stop offset=".527" stop-color="#d2d3d3"/><stop offset=".577" stop-color="#b3b4b4"/><stop offset=".632" stop-color="#999b9b"/><stop offset=".693" stop-color="#858788"/><stop offset=".762" stop-color="#78797a"/><stop offset=".848" stop-color="#6f7172"/><stop offset="1" stop-color="#6d6f70"/></linearGradient><path d="M32.5 55.7S25.8 26.2 38 16.6c12-9.5 36.8-11 42.5-10.8 5.7.2 49.8-.1 66 14.8 15.8 14.5 3 41.6 1.5 45.7-1.5 4.1-12.6 27.6-42.3 32.1-29.7 4.5-48.7-3.7-56-9.1-9.2-6.8-16.1-21.4-17.2-33.6z" opacity=".15" fill="url(#SVGID_7_)"/><linearGradient id="SVGID_8_" gradientUnits="userSpaceOnUse" x1="213.235" y1="52.747" x2="336.947" y2="52.747" gradientTransform="matrix(-1 0 0 1 529.676 0)"><stop offset="0" stop-color="#6d6f70"/><stop offset=".16" stop-color="#6f7172"/><stop offset=".234" stop-color="#777879"/><stop offset=".291" stop-color="#838586"/><stop offset=".34" stop-color="#969798"/><stop offset=".382" stop-color="#aeafaf"/><stop offset=".421" stop-color="#cbcccc"/><stop offset=".455" stop-color="#ededed"/><stop offset=".471" stop-color="#fff"/><stop offset=".48" stop-color="#f7f7f7"/><stop offset=".527" stop-color="#d2d3d3"/><stop offset=".577" stop-color="#b3b4b4"/><stop offset=".632" stop-color="#999b9b"/><stop offset=".693" stop-color="#858788"/><stop offset=".762" stop-color="#78797a"/><stop offset=".848" stop-color="#6f7172"/><stop offset="1" stop-color="#6d6f70"/></linearGradient><path d="M314.6 55.7s6.7-29.5-5.5-39.1c-12.1-9.5-36.8-11-42.6-10.8-5.7.2-49.8-.1-66 14.8-15.8 14.5-3 41.6-1.5 45.7 1.5 4.1 12.6 27.6 42.3 32.1 29.7 4.5 48.7-3.7 56-9.1 9.2-6.8 16.1-21.4 17.3-33.6z" opacity=".15" fill="url(#SVGID_8_)"/><g><linearGradient id="SVGID_9_" gradientUnits="userSpaceOnUse" x1="42.273" y1="4.405" x2="130.538" y2="4.405"><stop offset=".021"/><stop offset=".048" stop-color="#030303"/><stop offset=".07" stop-color="#0d0d0e"/><stop offset=".091" stop-color="#1e1e1f"/><stop offset=".111" stop-color="#363637"/><stop offset=".129" stop-color="#545456"/><stop offset=".132" stop-color="#59595c"/><stop offset=".141" stop-color="#505053"/><stop offset=".18" stop-color="#2d2d2f"/><stop offset=".216" stop-color="#141415"/><stop offset=".249" stop-color="#050505"/><stop offset=".275"/><stop offset=".741"/><stop offset=".764" stop-color="#050505"/><stop offset=".79" stop-color="#121213"/><stop offset=".819" stop-color="#29292b"/><stop offset=".849" stop-color="#49494b"/><stop offset=".862" stop-color="#59595c"/><stop offset=".87" stop-color="#4c4c4f"/><stop offset=".89" stop-color="#313132"/><stop offset=".912" stop-color="#1b1b1c"/><stop offset=".936" stop-color="#0c0c0c"/><stop offset=".963" stop-color="#030303"/><stop offset="1"/></linearGradient><path d="M42.3 2.8c7.3-.5 14.7-.7 22.1-.9 7.3-.1 14.7-.1 22.1.1 7.4.2 14.7.6 22.1 1.3 7.3.8 14.7 1.7 21.8 3.7L125 5.9l-5.5-.8c-3.7-.4-7.3-.9-11-1.1-3.7-.3-7.3-.5-11-.7-3.7-.1-7.4-.3-11-.4-7.4-.2-14.7-.3-22.1-.3-3.7 0-7.4 0-11.1.1-3.7 0-7.3.1-11 .1z" fill="url(#SVGID_9_)"/></g><g><linearGradient id="SVGID_10_" gradientUnits="userSpaceOnUse" x1="7.721" y1="16.528" x2="9.245" y2="16.528"><stop offset=".021"/><stop offset=".048" stop-color="#030303"/><stop offset=".07" stop-color="#0d0d0e"/><stop offset=".091" stop-color="#1e1e1f"/><stop offset=".111" stop-color="#363637"/><stop offset=".129" stop-color="#545456"/><stop offset=".132" stop-color="#59595c"/><stop offset=".141" stop-color="#505053"/><stop offset=".18" stop-color="#2d2d2f"/><stop offset=".216" stop-color="#141415"/><stop offset=".249" stop-color="#050505"/><stop offset=".275"/><stop offset=".741"/><stop offset=".764" stop-color="#050505"/><stop offset=".79" stop-color="#121213"/><stop offset=".819" stop-color="#29292b"/><stop offset=".849" stop-color="#49494b"/><stop offset=".862" stop-color="#59595c"/><stop offset=".87" stop-color="#4c4c4f"/><stop offset=".89" stop-color="#313132"/><stop offset=".912" stop-color="#1b1b1c"/><stop offset=".936" stop-color="#0c0c0c"/><stop offset=".963" stop-color="#030303"/><stop offset="1"/></linearGradient><path d="M8.2 28.6c-.3-4-.2-8-.2-12 .1-4 .3-8 .8-12 .3 4 .2 8 .2 12-.2 3.9-.4 8-.8 12z" fill="url(#SVGID_10_)"/></g><g><linearGradient id="SVGID_11_" gradientUnits="userSpaceOnUse" x1="71.585" y1="91.853" x2="137.406" y2="91.853"><stop offset=".021"/><stop offset=".048" stop-color="#030303"/><stop offset=".07" stop-color="#0d0d0e"/><stop offset=".091" stop-color="#1e1e1f"/><stop offset=".111" stop-color="#363637"/><stop offset=".129" stop-color="#545456"/><stop offset=".132" stop-color="#59595c"/><stop offset=".141" stop-color="#505053"/><stop offset=".18" stop-color="#2d2d2f"/><stop offset=".216" stop-color="#141415"/><stop offset=".249" stop-color="#050505"/><stop offset=".275"/><stop offset=".741"/><stop offset=".764" stop-color="#050505"/><stop offset=".79" stop-color="#121213"/><stop offset=".819" stop-color="#29292b"/><stop offset=".849" stop-color="#49494b"/><stop offset=".862" stop-color="#59595c"/><stop offset=".87" stop-color="#4c4c4f"/><stop offset=".89" stop-color="#313132"/><stop offset=".912" stop-color="#1b1b1c"/><stop offset=".936" stop-color="#0c0c0c"/><stop offset=".963" stop-color="#030303"/><stop offset="1"/></linearGradient><path d="M71.7 98.7c2.9.5 5.8.8 8.7 1 2.9.2 5.8.3 8.7.3 5.8 0 11.6-.5 17.3-1.6 5.7-1.1 11.3-2.8 16.5-5.3 5.2-2.5 10-5.9 14.2-10-2 2.1-4.1 4.2-6.4 5.9-2.4 1.7-4.8 3.4-7.4 4.7-5.2 2.7-10.9 4.4-16.6 5.6-5.8 1.1-11.6 1.5-17.5 1.4-6-.2-11.8-.7-17.5-2z" fill="url(#SVGID_11_)"/></g><g><linearGradient id="SVGID_12_" gradientUnits="userSpaceOnUse" x1="223.754" y1="3.602" x2="305.18" y2="3.602"><stop offset=".021"/><stop offset=".048" stop-color="#030303"/><stop offset=".07" stop-color="#0d0d0e"/><stop offset=".091" stop-color="#1e1e1f"/><stop offset=".111" stop-color="#363637"/><stop offset=".129" stop-color="#545456"/><stop offset=".132" stop-color="#59595c"/><stop offset=".141" stop-color="#505053"/><stop offset=".18" stop-color="#2d2d2f"/><stop offset=".216" stop-color="#141415"/><stop offset=".249" stop-color="#050505"/><stop offset=".275"/><stop offset=".741"/><stop offset=".764" stop-color="#050505"/><stop offset=".79" stop-color="#121213"/><stop offset=".819" stop-color="#29292b"/><stop offset=".849" stop-color="#49494b"/><stop offset=".862" stop-color="#59595c"/><stop offset=".87" stop-color="#4c4c4f"/><stop offset=".89" stop-color="#313132"/><stop offset=".912" stop-color="#1b1b1c"/><stop offset=".936" stop-color="#0c0c0c"/><stop offset=".963" stop-color="#030303"/><stop offset="1"/></linearGradient><path d="M223.8 5.7c6.7-1.1 13.5-1.8 20.2-2.5 6.8-.6 13.6-1.1 20.3-1.4 6.8-.3 13.6-.4 20.4-.2 6.8.2 13.6.6 20.3 1.4-3.4-.2-6.8-.4-10.2-.5-3.4-.2-6.8-.2-10.2-.2-6.8 0-13.6.1-20.3.5-6.7.2-13.5.6-20.3 1.1-3.4.2-6.8.5-10.1.8-3.4.3-6.8.7-10.1 1z" fill="url(#SVGID_12_)"/></g><g><linearGradient id="SVGID_13_" gradientUnits="userSpaceOnUse" x1="238.452" y1="94.852" x2="298.397" y2="94.852"><stop offset=".021"/><stop offset=".048" stop-color="#030303"/><stop offset=".07" stop-color="#0d0d0e"/><stop offset=".091" stop-color="#1e1e1f"/><stop offset=".111" stop-color="#363637"/><stop offset=".129" stop-color="#545456"/><stop offset=".132" stop-color="#59595c"/><stop offset=".141" stop-color="#505053"/><stop offset=".18" stop-color="#2d2d2f"/><stop offset=".216" stop-color="#141415"/><stop offset=".249" stop-color="#050505"/><stop offset=".275"/><stop offset=".741"/><stop offset=".764" stop-color="#050505"/><stop offset=".79" stop-color="#121213"/><stop offset=".819" stop-color="#29292b"/><stop offset=".849" stop-color="#49494b"/><stop offset=".862" stop-color="#59595c"/><stop offset=".87" stop-color="#4c4c4f"/><stop offset=".89" stop-color="#313132"/><stop offset=".912" stop-color="#1b1b1c"/><stop offset=".936" stop-color="#0c0c0c"/><stop offset=".963" stop-color="#030303"/><stop offset="1"/></linearGradient><path d="M238.5 98.5c2.6.4 5.1.7 7.7.9 2.6.2 5.1.4 7.7.5 5.2.1 10.3 0 15.4-.6 2.6-.3 5.1-.7 7.6-1.2s5-1.2 7.4-2c2.4-.8 4.8-1.8 7.1-3s4.5-2.6 6.5-4.1c-1.9 1.7-4.1 3.2-6.3 4.5-2.3 1.3-4.6 2.3-7.1 3.3-4.9 1.8-10 2.8-15.2 3.5-5.2.5-10.4.7-15.6.4-4.9-.4-10.1-1.1-15.2-2.2z" fill="url(#SVGID_13_)"/></g><g><path class="st7" d="M326.4 11.2c0 1.3 1.1 2.4 2.4 2.4 1.3 0 2.4-1.1 2.4-2.4 0-1.3-1.1-2.4-2.4-2.4-1.3 0-2.4 1.1-2.4 2.4zM326.4 21.1c0 1.3 1.1 2.4 2.4 2.4 1.3 0 2.4-1.1 2.4-2.4 0-1.3-1.1-2.4-2.4-2.4-1.3 0-2.4 1.1-2.4 2.4z"/></g><g><path class="st7" d="M325.2 11.2c0 1.3 1.1 2.4 2.4 2.4 1.3 0 2.4-1.1 2.4-2.4 0-1.3-1.1-2.4-2.4-2.4-1.3 0-2.4 1.1-2.4 2.4zM325.2 21.1c0 1.3 1.1 2.4 2.4 2.4 1.3 0 2.4-1.1 2.4-2.4 0-1.3-1.1-2.4-2.4-2.4-1.3 0-2.4 1.1-2.4 2.4z"/></g><g><linearGradient id="SVGID_14_" gradientUnits="userSpaceOnUse" x1="49.028" y1="17.524" x2="143.778" y2="17.524"><stop offset=".021"/><stop offset=".048" stop-color="#030303"/><stop offset=".07" stop-color="#0d0d0e"/><stop offset=".091" stop-color="#1e1e1f"/><stop offset=".111" stop-color="#363637"/><stop offset=".129" stop-color="#545456"/><stop offset=".132" stop-color="#59595c"/><stop offset=".141" stop-color="#505053"/><stop offset=".18" stop-color="#2d2d2f"/><stop offset=".216" stop-color="#141415"/><stop offset=".249" stop-color="#050505"/><stop offset=".275"/><stop offset=".741"/><stop offset=".764" stop-color="#050505"/><stop offset=".79" stop-color="#121213"/><stop offset=".819" stop-color="#29292b"/><stop offset=".849" stop-color="#49494b"/><stop offset=".862" stop-color="#59595c"/><stop offset=".87" stop-color="#4c4c4f"/><stop offset=".89" stop-color="#313132"/><stop offset=".912" stop-color="#1b1b1c"/><stop offset=".936" stop-color="#0c0c0c"/><stop offset=".963" stop-color="#030303"/><stop offset="1"/></linearGradient><path fill="url(#SVGID_14_)" d="M49 13.5l11.9.8 11.8.9 23.7 1.9 23.7 2.1 11.9 1.1 11.8 1.2-11.9-.8-11.8-.8L96.4 18l-23.7-2.1-11.8-1.2z"/></g><g><linearGradient id="SVGID_15_" gradientUnits="userSpaceOnUse" x1="271.838" y1="53.648" x2="312.468" y2="53.648"><stop offset=".021"/><stop offset=".048" stop-color="#030303"/><stop offset=".07" stop-color="#0d0d0e"/><stop offset=".091" stop-color="#1e1e1f"/><stop offset=".111" stop-color="#363637"/><stop offset=".129" stop-color="#545456"/><stop offset=".132" stop-color="#59595c"/><stop offset=".141" stop-color="#505053"/><stop offset=".18" stop-color="#2d2d2f"/><stop offset=".216" stop-color="#141415"/><stop offset=".249" stop-color="#050505"/><stop offset=".275"/><stop offset=".741"/><stop offset=".764" stop-color="#050505"/><stop offset=".79" stop-color="#121213"/><stop offset=".819" stop-color="#29292b"/><stop offset=".849" stop-color="#49494b"/><stop offset=".862" stop-color="#59595c"/><stop offset=".87" stop-color="#4c4c4f"/><stop offset=".89" stop-color="#313132"/><stop offset=".912" stop-color="#1b1b1c"/><stop offset=".936" stop-color="#0c0c0c"/><stop offset=".963" stop-color="#030303"/><stop offset="1"/></linearGradient><path d="M272 44.5c3.4 1.3 6.8 2.8 10.2 4.2 3.4 1.5 6.7 3 10.1 4.5 3.3 1.6 6.7 3.1 10 4.7s6.6 3.2 9.9 4.9c-3.4-1.3-6.8-2.8-10.2-4.2-3.4-1.5-6.7-3-10.1-4.5-3.3-1.6-6.7-3.1-10-4.7s-6.6-3.2-9.9-4.9z" fill="url(#SVGID_15_)"/></g></svg>