<svg viewBox="0 0 512 512" xmlns="http://www.w3.org/2000/svg"><path fill="#0f0" d="m45 361h136v30h-45c-8.285156 0-15 6.714844-15 15s6.714844 15 15 15h166v46c0 24.8125 20.1875 45 45 45h120c24.8125 0 45-20.1875 45-45v-241c0-24.8125-20.1875-45-45-45h-15v-136c0-24.8125-20.1875-45-45-45h-362c-24.8125 0-45 20.1875-45 45v271c0 24.8125 20.1875 45 45 45zm-15-45v-15h272v30h-257c-8.269531 0-15-6.730469-15-15zm452 106h-150v-151h150zm-271-61h30v30h-30zm60 30v-30h31v30zm196 91h-120c-8.269531 0-15-6.730469-15-15v-15h150v15c0 8.269531-6.730469 15-15 15zm15-256v15h-150v-15c0-8.269531 6.730469-15 15-15h120c8.269531 0 15 6.730469 15 15zm-437-196h362c8.269531 0 15 6.730469 15 15v136h-75c-24.8125 0-45 20.1875-45 45v45h-272v-226c0-8.269531 6.730469-15 15-15zm0 0"/></svg>