<?xml version="1.0" standalone="no"?>
<!DOCTYPE svg PUBLIC "-//W3C//DTD SVG 20010904//EN"
 "http://www.w3.org/TR/2001/REC-SVG-20010904/DTD/svg10.dtd">
<svg version="1.0" xmlns="http://www.w3.org/2000/svg"
 width="203.000000pt" height="203.000000pt" viewBox="0 0 203.000000 203.000000"
 preserveAspectRatio="xMidYMid meet">
<metadata>
Created by potrace 1.11, written by Peter Selinger 2001-2013
</metadata>
<g transform="translate(0.000000,203.000000) scale(0.100000,-0.100000)"
fill="#000000" stroke="none">
<path d="M131 2004 c-70 -48 -66 2 -68 -730 -2 -729 -5 -701 60 -748 26 -19
46 -21 268 -26 l239 -5 115 -150 c216 -281 259 -334 267 -329 6 4 133 166 238
304 14 18 51 66 83 107 l57 73 225 0 c124 0 226 -1 228 -2 8 -7 72 43 89 70
20 33 21 44 21 680 0 356 -3 661 -7 679 -8 34 -65 92 -94 95 -9 1 -393 2 -853
3 l-835 2 -33 -23z"/>
</g>
</svg>
