<?xml version="1.0" standalone="no"?>
<!DOCTYPE svg PUBLIC "-//W3C//DTD SVG 20010904//EN"
 "http://www.w3.org/TR/2001/REC-SVG-20010904/DTD/svg10.dtd">
<svg version="1.0" xmlns="http://www.w3.org/2000/svg"
 width="260.000000pt" height="260.000000pt" viewBox="0 0 260.000000 260.000000"
 preserveAspectRatio="xMidYMid meet">
<metadata>
Created by potrace 1.11, written by Peter Selinger 2001-2013
</metadata>
<g transform="translate(0.000000,260.000000) scale(0.100000,-0.100000)"
fill="#000000" stroke="none">
<path d="M1521 2414 c-293 -50 -531 -255 -625 -535 -57 -170 -53 -385 10 -540
99 -244 298 -423 539 -486 l70 -18 0 -199 c0 -109 -2 -201 -5 -205 -6 -8 -929
-9 -931 -1 -3 13 -5 286 -2 296 2 6 30 10 68 9 35 -1 68 1 72 4 10 7 12 544 2
551 -4 3 -119 5 -256 5 l-248 0 0 -280 0 -280 65 -1 c36 -1 72 -2 80 -3 14 -1
15 -33 15 -248 -1 -137 0 -253 2 -258 2 -7 297 -10 860 -10 l857 0 1 98 c1 53
-2 101 -5 105 -3 4 -84 8 -180 7 l-175 0 0 193 c0 106 2 197 5 201 3 4 34 13
70 20 256 50 481 233 582 474 32 75 33 79 52 182 66 364 -148 741 -498 876
-134 52 -284 67 -425 43z"/>
<path d="M428 1750 c-148 -43 -179 -243 -52 -333 90 -63 219 -29 273 71 6 12
13 43 15 70 9 124 -116 226 -236 192z"/>
</g>
</svg>
