<?xml version="1.0" standalone="no"?>
<!DOCTYPE svg PUBLIC "-//W3C//DTD SVG 20010904//EN"
 "http://www.w3.org/TR/2001/REC-SVG-20010904/DTD/svg10.dtd">
<svg version="1.0" xmlns="http://www.w3.org/2000/svg"
 width="260.000000pt" height="260.000000pt" viewBox="0 0 260.000000 260.000000"
 preserveAspectRatio="xMidYMid meet">
<metadata>
Created by potrace 1.11, written by Peter Selinger 2001-2013
</metadata>
<g transform="translate(0.000000,260.000000) scale(0.100000,-0.100000)"
fill="#000000" stroke="none">
<path d="M0 1300 l0 -1300 1300 0 1300 0 0 1300 0 1300 -1300 0 -1300 0 0
-1300z m1150 700 l0 -100 -95 0 -95 0 0 -230 0 -230 345 0 345 0 0 230 0 230
-90 0 -90 0 0 100 0 100 305 0 305 0 0 -100 0 -100 -90 0 -90 0 0 -600 0 -600
90 0 90 0 0 -100 0 -100 -305 0 -305 0 0 100 0 100 90 0 90 0 0 270 0 270
-345 0 -345 0 0 -270 0 -270 95 0 95 0 0 -100 0 -100 -310 0 -310 0 0 100 0
100 95 0 95 0 -2 598 -3 597 -92 3 -93 3 0 99 0 100 310 0 310 0 0 -100z"/>
</g>
</svg>
