<svg xmlns="http://www.w3.org/2000/svg" viewBox="0 0 449.81 126" role="img" title="Logo Setine Vendas"><defs><style>.cls-1{fill:#11939A;}.cls-2{fill:#d1d3d4;}</style></defs><title>Logo Setine Vendas</title><g data-name="Layer 2"><g xmlns="http://www.w3.org/2000/svg" id="Isolation_Mode" data-name="Isolation Mode"><path class="cls-1" d="M415.56,66.75v4H418a5.84,5.84,0,0,0,2.5-.42,1.74,1.74,0,0,0,.86-1.71,1.56,1.56,0,0,0-.75-1.39,4.08,4.08,0,0,0-2.32-.52Zm0,12.51h-3V64.39h7a6.58,6.58,0,0,1,2.75.52A3.76,3.76,0,0,1,424,66.39a4.33,4.33,0,0,1,.57,2.23,3.9,3.9,0,0,1-1.06,2.71,4.74,4.74,0,0,1-2.94,1.39,3.7,3.7,0,0,1,1.56,1.09,21.55,21.55,0,0,1,1.58,2.44l1.75,3h-3.74l-1.23-2.4A18.65,18.65,0,0,0,419,74.47a3.47,3.47,0,0,0-1.22-1,3.54,3.54,0,0,0-1.47-.27h-.79v6.11Zm3.33-18.76a11.24,11.24,0,0,0-11.28,11.26,10.85,10.85,0,0,0,1.53,5.65A11.24,11.24,0,0,0,418.89,83a11,11,0,0,0,5.65-1.51,11.27,11.27,0,0,0,4.07-4.1,11.23,11.23,0,0,0-9.72-16.91m0-2.73a13.92,13.92,0,0,1,14,14,14,14,0,0,1-7,12.13,14,14,0,0,1-19.14-5.11,14,14,0,0,1,12.12-21"/><polygon class="cls-1" points="283.24 85.42 303.15 85.42 303.15 1.64 283.24 1.64 283.24 85.42 283.24 85.42"/><polygon class="cls-1" points="273.22 1.68 185.42 1.68 185.42 17.61 219.39 17.61 219.39 85.42 239.34 85.42 239.34 17.61 273.22 17.61 273.22 1.68 273.22 1.68"/><path class="cls-1" d="M117.62,59.37V51.61h53.92v-16H117.62v-18h57.89V1.7H97.67V57.86A27.56,27.56,0,0,0,125.2,85.4h50.32V69.47H127.77a10,10,0,0,1-10.15-10.1"/><path class="cls-1" d="M57.9,35,38,32.12c-9.53-1.32-17.17-2.74-17.17-7.83,0-5.82,10.74-8.47,20.39-8.47,19.05,0,23.5,7.78,23.5,7.78H87.78A28.24,28.24,0,0,0,77,8.84C68.77,3.08,57.49,0,41.68,0,28.56,0,18.32,2.21,11.26,6.55S0,17.6,0,25.83C0,38.59,11.18,46.45,32.51,49.19l20.13,2.6c10.6,1.1,16.21,4.17,16.21,8.87,0,6.1-8.23,10.31-21,10.31C31,71,25,63.62,23.61,61.56H0c.58,2.06,3.23,9.7,11.9,16C21.1,84.21,32.13,87,47.43,87,61,87,71.5,84.62,78.72,79.87a23.6,23.6,0,0,0,11-20.61c0-13.47-10.11-21.2-31.79-24.31"/><path class="cls-1" d="M383,1.63V54.15L335.49,12.22C329.43,7,324.58,1.63,316,1.63h-2.82V85.42h16V33.2l47.11,41.62c6,5.22,11,10.6,19.59,10.6h3.06V1.63Z"/><path class="cls-2" d="M224.09,120.47h8c7.26,0,11.89-4.15,11.89-9.11s-4.63-9.11-11.89-9.11h-8v18.22Zm-6.24-23.13h14.27c11.41,0,18.14,6.61,18.14,14s-7,14-18.14,14H217.85v-28Z"/><path class="cls-2" d="M167.76,97.48v19.26l-15.32-15.69c-1.91-2-3.76-3.57-7.54-3.57H143v28.09h6.37V106.8l15.32,15.72a9.6,9.6,0,0,0,7.55,3h1.91V97.48Z"/><path class="cls-2" d="M315.16,115.46l-4.86-10-4.91,10ZM308.6,97.32h3.78l14.2,28.07h-6.67l-2.56-5.27h-14.2l-2.56,5.27H294L308.6,97.32Z"/><path class="cls-2" d="M397.89,106h-6.63c0-2.43-2.51-4.25-6.72-4.25-3.51,0-6.77,1.1-6.77,3.24,0,1.94,2.36,2.62,7.67,3.51,8.28,1.34,13.5,3,13.5,8.74,0,5.41-5.62,8.81-14.4,8.81-6.82,0-14.25-3-14.25-9.79h6.62c0,3.32,4.12,4.9,7.63,4.9,3.81,0,7.78-1.1,7.78-3.76,0-1.78-1.81-2.87-8.23-3.89s-12.94-2.54-12.94-8.56c0-4.81,5.26-8.17,13.39-8.17,9.18,0,13.35,4.77,13.35,9.22Z"/><polygon class="cls-2" points="29.95 97.71 18.56 125.76 11.44 125.76 0 97.71 7.02 97.71 15 119.34 22.93 97.71 29.95 97.71 29.95 97.71"/><path class="cls-2" d="M80.27,117.82h0v-4.18h16v-5h-16v-6H99.1v-5H73.67v19.45a8.82,8.82,0,0,0,9,8.55H99.27v-4.94H83.57a3.21,3.21,0,0,1-3.3-3Z"/></g></g></svg>