<svg width="24" height="24" xmlns="http://www.w3.org/2000/svg" role="img" title="Ligar SKYPARK">
 <g>
  <title>Ligar SKYPARK</title>
  <rect x="-1" y="-1" width="26" height="26" id="canvas_background" fill="none"/>
 </g>

 <g>
  <title>Layer 1</title>
  <path d="m18,11l5,-5l-5,-5l0,3l-4,0l0,4l4,0l0,3zm2,4.5c-1.25,0 -2.45,-0.2 -3.57,-0.57c-0.35,-0.11 -0.74,-0.03 -1.02,0.24l-2.2,2.2c-2.83,-1.44 -5.15,-3.75 -6.59,-6.59l2.2,-2.21c0.28,-0.26 0.36,-0.65 0.25,-1c-0.37,-1.12 -0.57,-2.32 -0.57,-3.57c0,-0.55 -0.45,-1 -1,-1l-3.5,0c-0.55,0 -1,0.45 -1,1c0,9.39 7.61,17 17,17c0.55,0 1,-0.45 1,-1l0,-3.5c0,-0.55 -0.45,-1 -1,-1z" id="svg_2" fill="#ffffff"/>
 </g>
</svg>