<svg id="svg" version="1.1" width="400" height="175" xmlns="http://www.w3.org/2000/svg" xmlns:xlink="http://www.w3.org/1999/xlink" style="display: block;"><g id="svgg"><path id="path2" d="M179.376 1.413 C 179.804 1.736,180.355 2.000,180.602 2.000 C 181.828 2.000,184.000 5.307,184.000 7.174 L 184.000 8.400 202.000 8.400 L 220.000 8.400 220.000 38.800 L 220.000 69.200 208.996 69.200 C 195.624 69.200,195.712 69.175,192.153 73.933 C 190.891 75.620,189.755 77.090,189.628 77.200 C 189.502 77.310,188.588 78.480,187.599 79.800 C 186.610 81.120,185.620 82.394,185.400 82.631 C 185.180 82.868,184.020 84.353,182.822 85.931 C 181.623 87.509,180.498 88.800,180.322 88.800 C 180.145 88.800,180.000 91.680,180.000 95.200 C 180.000 101.970,180.118 102.340,181.640 100.336 C 182.168 99.641,183.410 98.050,184.400 96.800 C 185.390 95.550,186.650 93.930,187.200 93.200 C 187.750 92.470,188.384 91.677,188.608 91.437 C 188.833 91.196,189.727 90.010,190.595 88.800 C 191.463 87.590,192.270 86.510,192.387 86.400 C 192.504 86.290,193.766 84.670,195.191 82.800 C 196.616 80.930,198.101 79.051,198.491 78.625 C 198.881 78.198,199.200 77.703,199.200 77.525 C 199.200 77.346,204.336 77.200,210.613 77.200 C 223.113 77.200,223.738 77.104,225.895 74.846 C 228.017 72.627,228.000 72.912,228.000 38.800 C 228.000 3.447,228.106 4.866,225.272 2.370 L 223.487 0.800 201.044 0.813 C 181.222 0.824,178.691 0.894,179.376 1.413 M0.000 113.000 L 0.000 151.200 7.800 151.200 L 15.600 151.200 15.599 115.700 C 15.597 80.507,15.590 80.188,14.769 78.842 C 12.783 75.584,10.877 74.820,4.700 74.809 L 0.000 74.800 0.000 113.000 M39.600 91.034 C 36.409 91.400,33.618 92.207,30.562 93.650 C 27.520 95.086,26.746 95.715,22.521 100.193 C 22.083 100.657,21.071 102.341,20.084 104.245 C 15.680 112.749,15.329 127.390,19.298 137.052 C 23.387 147.006,32.011 152.416,43.749 152.391 C 50.002 152.378,58.009 150.195,60.564 147.808 C 60.804 147.584,61.639 146.923,62.420 146.341 C 65.520 144.028,70.400 135.983,70.400 133.185 C 70.400 132.750,58.876 132.645,56.794 133.061 C 55.985 133.223,54.728 134.078,53.493 135.306 C 48.325 140.448,38.807 140.399,35.745 135.215 C 35.350 134.547,34.915 134.000,34.778 134.000 C 34.640 134.000,34.298 133.235,34.017 132.300 C 33.736 131.365,33.348 130.078,33.153 129.440 C 32.959 128.802,32.800 127.767,32.800 127.140 L 32.800 126.000 52.000 126.000 L 71.200 126.000 71.200 120.977 C 71.200 118.215,71.015 115.110,70.789 114.077 C 70.562 113.045,70.181 111.300,69.942 110.200 C 69.474 108.045,66.926 102.246,65.890 100.977 C 65.541 100.550,64.763 99.599,64.162 98.864 C 59.630 93.328,49.044 89.953,39.600 91.034 M92.600 91.035 C 82.383 92.036,73.654 99.235,73.606 106.700 L 73.600 107.600 81.125 107.600 L 88.650 107.600 89.493 106.459 C 93.005 101.709,107.200 103.146,107.200 108.252 C 107.200 111.552,103.929 113.046,93.224 114.635 C 77.720 116.937,72.000 122.102,72.000 133.800 C 72.000 148.379,82.165 154.547,101.676 151.808 C 106.550 151.124,106.454 151.152,110.400 149.288 C 115.814 146.732,119.827 141.777,121.371 135.742 C 122.405 131.701,122.293 104.780,121.230 101.983 C 118.207 94.026,106.760 89.649,92.600 91.035 M148.800 91.034 C 138.794 92.168,130.344 96.726,127.059 102.762 C 124.177 108.058,124.278 106.727,124.111 141.500 L 123.960 172.800 129.006 172.800 C 134.299 172.800,135.022 172.622,136.936 170.851 C 139.352 168.615,139.387 168.414,139.532 156.144 L 139.664 144.888 141.332 146.741 C 144.900 150.707,149.228 152.400,155.800 152.400 C 170.601 152.400,179.718 140.474,179.653 121.200 C 179.626 113.165,177.571 104.297,175.205 102.000 C 175.091 101.890,174.733 101.285,174.408 100.656 C 172.813 97.565,167.546 93.870,162.700 92.442 C 161.875 92.199,160.615 91.827,159.900 91.615 C 158.440 91.183,150.950 90.791,148.800 91.034 M48.503 104.985 C 51.982 106.439,54.777 110.753,54.796 114.700 L 54.800 115.600 43.800 115.600 L 32.800 115.600 32.800 114.660 C 32.800 112.452,34.348 108.986,36.083 107.309 C 38.988 104.503,44.762 103.422,48.503 104.985 M156.937 105.598 C 165.077 109.718,166.801 127.799,159.793 135.555 C 155.009 140.851,145.143 139.419,141.667 132.925 C 139.015 127.969,138.991 115.680,141.624 110.400 C 144.317 104.999,151.379 102.785,156.937 105.598 M106.459 132.225 C 102.374 143.587,83.443 142.142,87.255 130.760 C 88.093 128.259,90.457 126.571,94.400 125.660 C 99.338 124.518,103.426 123.441,105.120 122.834 L 107.000 122.160 107.114 126.122 C 107.204 129.238,107.064 130.541,106.459 132.225 " stroke="none" fill="#ffffff" fill-rule="evenodd"></path><path id="path3" d="M135.947 1.799 C 132.608 3.989,132.772 1.970,132.893 39.270 L 133.000 72.259 134.066 73.869 C 136.131 76.990,137.134 77.200,149.962 77.200 L 161.132 77.200 162.784 79.300 C 163.693 80.455,164.657 81.670,164.926 82.000 C 165.196 82.330,166.579 84.130,168.000 86.000 C 169.421 87.870,170.804 89.670,171.073 90.000 C 172.876 92.209,175.673 95.826,177.202 97.924 C 179.587 101.198,179.541 101.261,179.679 94.544 C 179.802 88.597,179.473 87.166,177.625 85.600 C 177.495 85.490,176.311 83.960,174.994 82.200 C 173.677 80.440,172.505 78.910,172.390 78.800 C 172.274 78.690,171.559 77.790,170.800 76.800 C 170.041 75.810,169.317 74.910,169.191 74.800 C 169.065 74.690,168.529 73.970,168.000 73.200 C 165.340 69.329,164.817 69.200,151.751 69.200 L 140.800 69.200 140.800 38.800 L 140.800 8.400 162.400 8.400 C 183.660 8.400,184.000 8.388,184.000 7.608 C 184.000 5.107,181.888 2.389,179.476 1.783 C 178.884 1.635,178.400 1.353,178.400 1.157 C 178.400 0.952,169.656 0.810,157.900 0.824 L 137.400 0.847 135.947 1.799 M275.200 81.200 L 275.200 87.600 283.000 87.600 L 290.800 87.600 290.799 83.900 C 290.796 76.919,288.284 74.824,279.900 74.809 L 275.200 74.800 275.200 81.200 M383.600 86.686 L 383.600 98.573 381.500 96.548 C 374.748 90.036,364.938 88.979,356.264 93.827 C 339.569 103.158,339.186 140.272,355.693 149.134 C 362.988 153.051,375.342 153.451,383.899 150.047 C 392.689 146.551,396.364 142.603,398.419 134.452 C 399.655 129.545,399.612 80.881,398.369 78.842 C 396.256 75.376,394.886 74.803,388.700 74.801 L 383.600 74.800 383.600 86.686 M205.000 91.038 C 195.637 92.333,188.639 96.049,185.383 101.456 C 182.321 106.542,182.016 109.305,182.007 132.100 L 182.000 151.200 189.980 151.200 L 197.960 151.200 198.080 130.700 C 198.199 110.336,198.206 110.189,199.097 108.521 C 202.601 101.966,213.986 102.252,217.146 108.975 C 217.983 110.754,218.000 111.201,218.000 130.996 L 218.000 151.200 225.983 151.200 L 233.966 151.200 234.083 130.500 C 234.213 107.446,234.101 108.384,237.007 106.167 C 241.395 102.821,247.420 102.959,251.452 106.499 C 253.999 108.736,254.000 108.741,254.000 127.018 C 254.000 150.809,254.108 151.051,264.734 151.177 L 270.068 151.240 269.907 130.320 C 269.805 116.925,269.593 108.968,269.320 108.200 C 269.085 107.540,268.656 106.190,268.365 105.200 C 266.573 99.093,262.510 95.375,254.600 92.606 C 246.246 89.681,233.624 90.929,227.481 95.287 L 226.362 96.081 224.881 95.104 C 222.457 93.505,220.521 92.735,216.200 91.650 C 214.398 91.198,206.835 90.784,205.000 91.038 M313.800 91.071 C 305.311 91.797,296.629 96.749,293.873 102.435 C 291.503 107.327,291.480 107.578,291.299 130.300 L 291.133 151.200 299.166 151.200 L 307.200 151.200 307.200 131.271 C 307.200 109.205,307.245 108.762,309.723 106.544 C 315.373 101.485,324.832 103.544,326.733 110.246 C 327.055 111.383,327.200 117.094,327.200 128.698 C 327.200 151.143,327.227 151.200,337.826 151.200 L 342.800 151.200 342.800 131.431 C 342.800 111.777,342.709 110.142,341.336 105.200 C 339.233 97.631,331.649 92.399,321.008 91.175 C 317.851 90.812,316.980 90.799,313.800 91.071 M275.200 121.600 L 275.200 151.200 283.000 151.200 L 290.800 151.200 290.800 124.380 C 290.800 95.218,290.902 96.569,288.530 94.316 C 286.710 92.586,284.436 92.000,279.550 92.000 L 275.200 92.000 275.200 121.600 M375.245 105.190 C 378.754 106.203,381.311 109.099,382.820 113.770 C 384.539 119.092,383.547 130.501,381.043 134.200 C 376.035 141.598,364.794 140.540,361.086 132.322 C 358.026 125.540,358.777 113.059,362.487 109.025 C 362.879 108.598,363.200 108.139,363.200 108.004 C 363.200 107.538,366.911 105.398,368.552 104.917 C 370.307 104.403,372.882 104.508,375.245 105.190 " stroke="none" fill="#686868" fill-rule="evenodd"></path></g></svg>