<svg xmlns="http://www.w3.org/2000/svg" width="3424" height="1024" viewBox="0 0 3424 1024"><title/><path d="M1436.98 590.067c-70.97 0-114.904 43.258-114.904 133.154v139.237h-106.793V485.302h106.793v75.702c21.629-52.045 56.776-85.84 120.312-83.137v112.201h-5.407zM1824.95 711.055h-262.252c10.815 48.665 44.61 73.674 91.923 73.674 35.823 0 62.183-11.49 91.248-38.527l61.508 54.073c-35.147 43.934-85.84 70.294-154.107 70.294-113.552 0-197.365-79.757-197.365-194.661v-1.352c0-107.469 76.378-196.689 186.55-196.689 125.719 0 183.847 98.007 183.847 204.8v1.352c0 10.815-.676 16.898-1.352 27.036zm-181.819-147.348c-44.61 0-72.998 31.768-81.785 80.433h160.866c-6.083-47.989-34.471-80.433-79.081-80.433zM2120.998 862.458V651.575c0-50.693-23.657-76.378-64.887-76.378-40.554 0-66.915 26.36-66.915 76.378v210.207h-106.793V485.301h106.793v53.397c24.333-31.768 56.1-60.832 110.173-60.832 81.109 0 128.422 53.397 128.422 139.913v244.003h-106.793zM2481.933 870.569c-116.932 0-203.448-86.516-203.448-194.661v-1.352c0-108.145 87.192-196.689 204.8-196.689 116.932 0 203.448 86.516 203.448 194.661v1.352c0 108.821-87.192 196.689-204.8 196.689zm99.358-196.013c0-55.424-39.879-104.09-99.358-104.09-61.508 0-98.007 47.314-98.007 102.738v1.352c0 55.424 39.879 104.09 99.358 104.09 61.508 0 98.007-47.314 98.007-102.738v-1.352zM2930.735 865.162h-97.331l-148.7-379.86h113.552l84.488 252.789 85.164-252.789h111.525l-148.7 379.86zM3320.734 862.458v-40.554c-26.36 29.064-62.183 47.989-114.228 47.989-70.97 0-129.774-40.554-129.774-115.58v-1.352c0-82.461 62.859-120.312 152.079-120.312 37.851 0 65.563 6.083 91.923 15.546v-6.083c0-44.61-27.712-68.943-81.109-68.943-40.554 0-69.618 7.435-104.09 20.277l-27.036-81.785c41.23-18.25 82.461-30.416 146.672-30.416 116.932 0 168.301 60.832 168.301 162.894v218.994h-102.738zm2.704-152.079c-18.25-8.111-41.906-14.194-68.267-14.194-45.962 0-73.674 18.25-73.674 52.045v1.352c0 29.064 23.657 45.962 58.128 45.962 50.017 0 83.813-27.712 83.813-66.239V710.38zM1350.463 208.18h-114.228v67.591h102.062v19.601h-102.062v82.461h-20.953V188.579h135.857v19.601zM1632.993 296.723c0 54.749-31.768 83.813-78.405 83.813s-78.405-28.388-78.405-81.785V188.578h20.953v108.145c0 40.554 21.629 63.535 57.452 63.535 34.471 0 56.776-20.953 56.776-62.183V188.578h20.953v108.145zM1908.763 188.578h20.953v188.578h-16.898l-121.663-154.783v154.783h-20.953V188.578h20.277l118.96 151.403V188.578zM2135.868 377.156h-65.563V188.578h65.563c59.48 0 100.034 40.554 100.034 93.951s-41.23 94.627-100.034 94.627zm0-168.976h-43.934v149.376h43.934c47.989 0 78.405-32.444 78.405-74.35-.676-41.906-31.092-75.026-78.405-75.026zM2531.274 377.156h-22.981l-22.305-50.017H2383.25l-22.305 50.017h-21.629l85.84-189.93h20.277l85.84 189.93zm-96.655-164.921l-43.258 95.979h85.84l-42.582-95.979zM2646.854 283.205c0-54.073 39.879-98.007 95.303-98.007 34.471 0 54.749 12.166 73.674 29.74l-14.87 15.546c-16.222-14.87-33.795-25.684-59.48-25.684-41.906 0-72.998 33.795-72.998 77.729s31.768 78.405 72.998 78.405c25.684 0 42.582-10.139 60.832-27.036l14.194 13.518c-18.925 18.925-39.203 31.768-70.97 33.119l-17.574 38.527-20.277-9.463 20.953-30.416c-47.989-6.083-81.785-45.962-81.785-95.979zM3116.61 377.156h-22.981l-22.305-50.017h-102.738l-22.305 50.017h-21.629l85.84-189.93h20.277l85.84 189.93zm-77.054-210.883c-12.166 0-27.036-10.815-35.823-10.815-6.759 0-10.139 3.38-14.194 13.518l-12.842-3.38c5.407-20.277 12.842-28.388 25.684-28.388 12.166 0 27.036 10.815 35.823 10.815 6.759 0 10.139-3.38 14.194-13.518l12.842 3.38c-5.407 20.277-12.842 28.388-25.684 28.388zm-18.925 45.962l-43.258 95.979h85.84l-42.582-95.979zM3328.169 380.536c-57.452 0-95.979-45.286-95.979-97.331s39.203-98.007 96.655-98.007 95.979 45.286 95.979 97.331-39.203 98.007-96.655 98.007zm0-175.736c-43.258 0-73.674 34.471-73.674 77.729s31.092 78.405 74.35 78.405c43.258 0 73.674-34.471 73.674-77.729s-31.092-78.405-74.35-78.405z"/><path fill="#f26622" d="M998.991 576.549c-.676-11.49-2.028-22.981-3.38-34.471H775.265c0 6.759 0 13.518-.676 19.601-.676 6.759-1.352 13.518-2.028 19.601l227.105 29.74v-10.139c0-8.111-.676-16.222-.676-24.333zM764.451 620.483c-2.028 6.759-3.38 12.842-6.083 18.925l225.077 76.378c3.38-11.49 6.083-22.981 8.111-34.471s4.055-22.981 5.407-35.147l-227.781-45.286c-1.352 6.759-2.704 12.842-4.731 19.601zM743.498 675.908c-2.704 6.083-6.083 11.49-9.463 17.574l208.18 120.312c6.083-10.139 11.49-20.953 16.898-31.768s9.463-21.629 14.194-32.444l-221.022-91.248c-2.704 5.407-5.407 11.49-8.787 17.574zM759.044 444.071c2.028 6.083 4.055 12.842 6.083 18.925l190.606-50.693c-4.731-10.139-10.139-19.601-16.222-29.064-5.407-9.463-11.49-18.25-18.25-27.712l-168.977 70.294c2.028 5.407 4.731 12.166 6.759 18.25zM772.562 502.199c.676 6.759 1.352 12.842 2.028 19.601l214.939-14.194c-2.704-11.49-5.407-22.305-8.787-33.119s-7.435-21.629-11.49-31.768l-199.393 39.879c.676 6.083 1.352 12.842 2.704 19.601zM807.71 246.706c-8.111-5.407-16.898-10.815-25.684-15.546l-95.303 95.303c4.731 4.731 9.463 9.463 13.518 14.87 4.055 4.731 8.787 10.139 12.842 15.546l120.312-92.599c-8.787-6.083-17.574-12.166-25.684-17.574zM743.498 407.572l157.486-77.729c-6.759-8.111-14.194-16.222-21.629-23.657s-14.87-14.87-22.981-21.629l-132.478 88.544c3.38 5.407 7.435 11.49 10.139 16.898 3.38 5.407 6.759 11.49 9.463 17.574zM576.549 178.44h-8.111c-8.787 0-16.898.676-25.009 1.352l-12.842 63.535c6.759 1.352 12.842 2.704 19.601 4.731s12.842 3.38 18.925 6.083l25.684-75.026c-6.083-.676-12.166-.676-18.25-.676zM728.628 206.152c-8.787-3.38-17.574-6.759-27.036-9.463l-61.508 91.923c5.407 3.38 10.815 7.435 16.222 11.49s10.139 8.111 15.546 12.842l83.813-95.303c-9.463-4.055-18.25-8.111-27.036-11.49zM647.519 184.523c-8.787-1.352-17.574-2.704-27.036-3.38l-33.119 80.433 18.25 8.111c6.084 2.704 11.49 6.083 17.574 9.463l51.369-88.544c-8.787-2.704-18.25-4.731-27.036-6.083z"/><path fill="#00a88e" d="M50.017 457.589c.676 9.463 2.028 19.601 3.38 29.064s3.38 18.925 5.407 27.712l109.497 7.435c.676-6.759 1.352-13.518 2.028-19.601.676-6.759 2.028-12.842 3.38-19.601L50.018 457.589zM52.045 367.694c-1.352 10.139-2.028 20.277-2.704 30.416-.676 8.111-.676 16.222-.676 24.333v5.407l129.098 34.471c2.028-6.759 3.38-12.842 6.083-18.925 2.028-6.083 4.731-12.842 6.759-18.925L52.044 367.695zM74.35 276.446l-10.139 30.416c-2.704 10.139-5.407 20.277-7.435 30.416l141.941 69.618c2.704-6.083 6.083-11.49 9.463-17.574s6.759-11.49 10.139-16.898L74.351 276.445zM168.301 561.679c-.676-6.759-.676-13.518-.676-19.601H65.563c2.704 8.787 5.407 17.574 8.787 26.36 3.38 8.111 6.083 16.898 10.139 25.009l85.164-12.166c-.676-6.759-1.352-12.842-1.352-19.601zM177.764 620.483c-2.028-6.083-3.38-12.842-4.731-19.601l-77.729 15.546c4.055 7.435 8.111 14.87 12.842 22.305 4.055 7.435 8.787 14.194 13.518 21.629l62.183-20.953c-2.704-6.083-4.731-12.842-6.083-18.925zM268.335 52.045c-10.139 5.407-20.277 11.49-29.74 18.25-9.463 6.083-18.925 12.842-28.388 20.277L319.028 279.15c5.407-3.38 11.49-6.759 17.574-9.463l18.25-8.111-86.516-209.531zM366.342 12.842c-11.49 2.704-22.981 6.083-33.795 10.139s-22.305 8.111-32.444 12.842l73.674 217.642c6.083-2.028 12.842-4.055 18.925-6.083s12.842-3.38 19.601-4.731L366.341 12.842zM118.96 189.254c-6.083 9.463-12.166 18.925-16.898 28.388-5.407 9.463-10.139 18.925-14.87 29.064l142.617 110.173c4.055-5.407 8.111-10.139 12.842-15.546 4.055-4.731 8.787-10.139 13.518-14.87L118.96 189.254zM471.108 0c-12.166 0-23.657.676-35.147 1.352-12.166.676-23.657 2.704-35.147 4.731l31.092 234.54c6.759-.676 12.842-1.352 19.601-2.028s13.518-.676 19.601-.676V0zM184.523 112.201c-8.111 7.435-16.222 15.546-24.333 24.333-7.435 8.111-14.87 16.898-21.629 25.684l132.478 151.403c4.731-4.055 10.139-8.787 15.546-12.842s10.815-8.111 16.222-11.49L184.523 112.201z"/><path fill="#2f3192" d="M656.306 782.701c-5.407 4.055-10.815 8.111-16.222 11.49s-10.815 7.435-16.898 10.815l50.017 86.516 18.25-20.277c5.407-6.759 11.49-14.194 16.222-20.953l-51.369-67.591zM699.564 742.147c-4.055 4.731-8.787 10.139-13.518 14.194-4.731 4.731-9.463 9.463-14.194 13.518l50.693 58.128c4.731-7.435 8.787-14.87 12.842-22.305s8.111-14.87 11.49-22.305l-47.314-41.23zM302.131 794.191c-5.407-3.38-10.815-7.435-16.222-11.49L147.348 963.168c10.139 6.083 20.277 11.49 30.416 16.898s20.953 10.139 31.768 14.194l109.497-189.254c-5.407-3.38-11.49-6.759-16.898-10.815zM354.851 822.58l-18.25-8.111-94.627 191.282c10.815 3.38 21.629 6.083 33.119 8.787 10.815 2.704 22.305 4.055 33.119 6.083l64.887-190.606c-6.083-2.704-12.166-5.407-18.25-7.435zM605.613 814.469l-18.25 8.111c-6.084 2.704-12.166 4.731-18.925 6.759l39.879 117.608c8.111-5.407 15.546-11.49 22.981-17.574s14.194-12.166 21.629-18.925l-47.314-95.979zM256.169 756.341c-4.731-4.731-9.463-9.463-13.518-14.194L64.887 898.282c8.111 8.111 16.898 16.222 25.684 24.333 8.787 7.435 18.25 14.87 27.712 21.629l152.755-173.708c-5.407-4.731-10.139-9.463-14.87-14.194zM218.318 710.379c-3.38-5.407-7.435-10.815-10.815-16.898L-.001 813.793c6.083 10.139 12.166 20.277 18.925 29.74s14.194 18.925 21.629 28.388l189.254-145.32c-3.38-5.407-7.435-10.815-11.49-16.222zM549.513 835.422c-6.083 2.028-12.842 3.38-19.601 4.731s-12.842 2.028-19.601 3.38l19.601 147.348c9.463-4.055 18.925-8.111 27.712-12.842s17.574-9.463 26.36-14.87l-34.471-127.747zM490.709 844.884c-6.759.676-13.518.676-19.601.676-6.759 0-13.518 0-19.601-.676l-11.49 172.356c10.815-2.028 20.953-4.055 31.092-6.759s20.277-5.407 30.416-8.787L490.71 844.883zM411.628 839.477c-6.759-1.352-12.842-2.704-19.601-4.731l-50.693 187.902c7.435.676 15.546.676 23.657.676h10.139c10.815 0 21.629-.676 32.444-2.028l23.657-178.44c-6.083-.676-12.842-2.028-19.601-3.38z"/></svg>