<?xml version="1.0" encoding="utf-8"?>
<!-- Generator: Adobe Illustrator 16.0.0, SVG Export Plug-In . SVG Version: 6.00 Build 0)  -->
<!DOCTYPE svg PUBLIC "-//W3C//DTD SVG 1.1//EN" "http://www.w3.org/Graphics/SVG/1.1/DTD/svg11.dtd">
<svg version="1.1" id="Layer_1" xmlns="http://www.w3.org/2000/svg" xmlns:xlink="http://www.w3.org/1999/xlink" x="0px" y="0px"
	 width="70.957px" height="26.613px" viewBox="0 0 70.957 26.613" enable-background="new 0 0 70.957 26.613" xml:space="preserve">
<g>
	
		<linearGradient id="SVGID_1_" gradientUnits="userSpaceOnUse" x1="66.6763" y1="-1.7451" x2="68.2567" y2="-3.2963" gradientTransform="matrix(0.9998 0.0179 -0.0179 0.9998 -2.268 6.8907)">
		<stop  offset="0" style="stop-color:#ED6B06"/>
		<stop  offset="1" style="stop-color:#F3934A"/>
	</linearGradient>
	<path fill="url(#SVGID_1_)" d="M70.954,8.984c-0.061-1.677-1.129-2.515-2.469-3.144c-2.361-1.109-2.676-1.26-4.12-3.799
		c-2.587-4.546-7.971-0.541-5.394,2.72c1.553,1.964,5.437,0.688,5.726,4.144c-0.001,0.091,0.002,0.18,0.009,0.267
		c-0.033,1.833-1.812,2.568-3.307,2.982c-6.247,1.734-0.732,9.511,2.831,4.647c0.681-0.934,0.645-2.136,1.394-2.976
		c1.251-1.4,2.688-1.078,4.046-2.097c0.751-0.484,1.29-1.681,1.287-2.877"/>
</g>
<linearGradient id="SVGID_2_" gradientUnits="userSpaceOnUse" x1="57.5107" y1="1.0991" x2="63.4507" y2="1.0991" gradientTransform="matrix(0.9998 0.0179 -0.0179 0.9998 -2.268 6.8907)">
	<stop  offset="0" style="stop-color:#ED6B06"/>
	<stop  offset="1" style="stop-color:#F3934A"/>
</linearGradient>
<path fill="url(#SVGID_2_)" d="M61.14,9.151c-0.153-3.676-3.831-3.029-3.831-3.029s-2.691,0.403-1.97,3.794
	c0.175,0.813,1.004,2.381,3.561,2.118c1.036-0.106,2.224-1.349,2.247-2.689L61.14,9.151z"/>
<g>
	<path fill="#444023" d="M7.47,15.647c-0.18-1.258-1.099-1.938-2.357-1.938c-1.178,0-2.836,0.619-2.836,3.756
		C2.277,19.182,3.036,21,5.013,21c1.318,0,2.237-0.879,2.457-2.357h2.277c-0.419,2.677-2.077,4.154-4.733,4.154
		C1.777,22.797,0,20.5,0,17.465c0-3.116,1.698-5.553,5.093-5.553c2.396,0,4.434,1.198,4.653,3.734H7.47z"/>
	<path fill="#444023" d="M10.446,17.345c0-3.155,1.897-5.433,5.213-5.433s5.213,2.277,5.213,5.433c0,3.175-1.897,5.452-5.213,5.452
		S10.446,20.52,10.446,17.345z M18.595,17.345c0-1.778-0.899-3.636-2.936-3.636s-2.936,1.857-2.936,3.636
		c0,1.798,0.899,3.655,2.936,3.655S18.595,19.143,18.595,17.345z"/>
	<path fill="#444023" d="M20.951,12.192h1.698v-0.859c0-2.636,1.378-3.075,2.856-3.075c0.719,0,1.238,0.04,1.598,0.14v1.777
		c-0.3-0.08-0.599-0.119-1.059-0.119c-0.619,0-1.119,0.219-1.119,1.078v1.059h1.938v1.697h-1.938v8.629h-2.277v-8.629h-1.698V12.192
		z"/>
	<path fill="#444023" d="M26.763,12.192h1.698v-0.859c0-2.636,1.378-3.075,2.856-3.075c0.719,0,1.238,0.04,1.598,0.14v1.777
		c-0.3-0.08-0.599-0.119-1.059-0.119c-0.619,0-1.119,0.219-1.119,1.078v1.059h1.938v1.697h-1.938v8.629h-2.277v-8.629h-1.698V12.192
		z"/>
	<path fill="#444023" d="M35.232,17.944c0,1.618,0.879,3.057,2.776,3.057c1.318,0,2.117-0.58,2.517-1.719h2.157
		c-0.5,2.258-2.417,3.516-4.674,3.516c-3.236,0-5.053-2.257-5.053-5.433c0-2.937,1.917-5.452,4.993-5.452
		c3.256,0,5.253,2.936,4.874,6.031H35.232z M40.545,16.446c-0.08-1.438-1.059-2.736-2.597-2.736c-1.578,0-2.656,1.199-2.716,2.736
		H40.545z"/>
	<path fill="#444023" d="M42.861,12.192h2.497l2.696,7.709h0.04l2.616-7.709h2.377l-4.015,10.885
		c-0.739,1.858-1.278,3.536-3.655,3.536c-0.54,0-1.059-0.04-1.578-0.12v-1.918c0.359,0.061,0.719,0.141,1.079,0.141
		c1.059,0,1.318-0.56,1.598-1.438l0.26-0.799L42.861,12.192z"/>
</g>
</svg>
