<?xml version="1.0" encoding="utf-8"?>
<!-- Generator: Adobe Illustrator 16.0.0, SVG Export Plug-In . SVG Version: 6.00 Build 0)  -->
<!DOCTYPE svg PUBLIC "-//W3C//DTD SVG 1.1//EN" "http://www.w3.org/Graphics/SVG/1.1/DTD/svg11.dtd">
<svg version="1.1" id="Camada_1" xmlns="http://www.w3.org/2000/svg" xmlns:xlink="http://www.w3.org/1999/xlink" x="0px" y="0px"
	 width="999.666px" height="1023.324px" viewBox="-0.001 0 999.666 1023.324" enable-background="new -0.001 0 999.666 1023.324"
	 xml:space="preserve">
<title></title>
<path fill="#F26622" d="M998.99,576.549c-0.676-11.49-2.027-22.98-3.38-34.471H775.265c0,6.759,0,13.518-0.676,19.601
	c-0.677,6.759-1.353,13.519-2.028,19.602l227.104,29.739v-10.139C999.665,592.77,998.99,584.659,998.99,576.549L998.99,576.549z
	 M764.45,620.483c-2.027,6.759-3.38,12.842-6.083,18.925l225.077,76.378c3.38-11.49,6.083-22.981,8.111-34.472
	c2.028-11.489,4.055-22.98,5.407-35.146l-227.781-45.286C767.829,607.641,766.478,613.724,764.45,620.483L764.45,620.483z
	 M743.497,675.908c-2.703,6.083-6.083,11.49-9.463,17.574l208.181,120.312c6.083-10.139,11.489-20.953,16.897-31.768
	c5.408-10.815,9.463-21.63,14.194-32.444l-221.022-91.248C749.58,663.741,746.878,669.824,743.497,675.908L743.497,675.908z
	 M759.044,444.071c2.027,6.083,4.055,12.842,6.083,18.925l190.605-50.693c-4.73-10.139-10.139-19.601-16.222-29.064
	c-5.407-9.463-11.49-18.25-18.25-27.712l-168.978,70.294C754.312,431.229,757.015,437.987,759.044,444.071L759.044,444.071z
	 M772.562,502.199c0.676,6.759,1.352,12.842,2.028,19.601l214.938-14.193c-2.704-11.49-5.407-22.306-8.787-33.119
	c-3.38-10.814-7.435-21.629-11.489-31.769l-199.394,39.879C770.534,488.681,771.211,495.44,772.562,502.199L772.562,502.199z
	 M807.71,246.706c-8.111-5.407-16.898-10.815-25.685-15.546l-95.303,95.303c4.73,4.731,9.463,9.463,13.518,14.87
	c4.056,4.731,8.787,10.139,12.842,15.546l120.313-92.599C824.608,258.197,815.821,252.114,807.71,246.706L807.71,246.706z
	 M743.497,407.572l157.486-77.729c-6.759-8.111-14.194-16.222-21.629-23.657s-14.87-14.87-22.981-21.629l-132.478,88.544
	c3.38,5.407,7.435,11.49,10.139,16.898c3.38,5.407,6.759,11.49,9.463,17.574V407.572z M576.549,178.44h-8.111
	c-8.787,0-16.898,0.676-25.009,1.352l-12.842,63.535c6.759,1.352,12.842,2.704,19.601,4.731s12.842,3.38,18.925,6.083l25.685-75.026
	c-6.083-0.676-12.166-0.676-18.25-0.676L576.549,178.44z M728.628,206.152c-8.787-3.38-17.574-6.759-27.036-9.463l-61.508,91.923
	c5.406,3.38,10.814,7.435,16.222,11.49s10.139,8.111,15.546,12.842l83.813-95.303C746.201,213.586,737.414,209.53,728.628,206.152
	L728.628,206.152z M647.519,184.523c-8.787-1.352-17.574-2.704-27.036-3.38l-33.119,80.433l18.25,8.111
	c6.084,2.704,11.49,6.083,17.574,9.463l51.369-88.544c-8.787-2.704-18.25-4.731-27.036-6.083H647.519z"/>
<path fill="#00A88E" d="M50.017,457.589c0.676,9.463,2.028,19.602,3.38,29.064c1.353,9.463,3.38,18.925,5.407,27.712l109.497,7.435
	c0.676-6.759,1.352-13.518,2.028-19.601c0.676-6.759,2.027-12.842,3.38-19.602L50.017,457.589L50.017,457.589z M52.045,367.694
	c-1.353,10.139-2.028,20.277-2.704,30.416c-0.676,8.111-0.676,16.222-0.676,24.333v5.406l129.098,34.472
	c2.028-6.759,3.38-12.843,6.083-18.925c2.028-6.083,4.731-12.843,6.759-18.926L52.045,367.694L52.045,367.694z M74.35,276.446
	l-10.139,30.416c-2.704,10.139-5.407,20.277-7.436,30.416l141.941,69.618c2.704-6.083,6.083-11.49,9.463-17.574
	c3.38-6.084,6.759-11.49,10.139-16.898L74.351,276.445L74.35,276.446z M168.301,561.679c-0.676-6.759-0.676-13.518-0.676-19.601
	H65.563c2.704,8.787,5.407,17.574,8.787,26.359c3.38,8.111,6.083,16.898,10.139,25.01l85.164-12.166
	C168.977,574.521,168.301,568.439,168.301,561.679L168.301,561.679z M177.764,620.483c-2.028-6.083-3.38-12.843-4.73-19.602
	l-77.729,15.546c4.055,7.436,8.111,14.87,12.842,22.306c4.056,7.435,8.787,14.193,13.519,21.629l62.183-20.953
	C181.143,633.326,179.116,626.567,177.764,620.483L177.764,620.483z M268.335,52.045c-10.14,5.407-20.277,11.49-29.74,18.25
	c-9.463,6.083-18.925,12.842-28.388,20.277l108.82,188.578c5.407-3.38,11.49-6.759,17.574-9.463l18.25-8.111L268.335,52.045
	L268.335,52.045z M366.342,12.842c-11.49,2.704-22.981,6.083-33.795,10.139c-10.814,4.056-22.306,8.111-32.444,12.842
	l73.674,217.642c6.083-2.028,12.842-4.055,18.925-6.083c6.083-2.028,12.843-3.38,19.602-4.731L366.342,12.842L366.342,12.842z
	 M118.96,189.254c-6.083,9.463-12.166,18.925-16.898,28.388c-5.407,9.463-10.139,18.925-14.87,29.064l142.617,110.173
	c4.055-5.407,8.111-10.139,12.842-15.546c4.056-4.731,8.787-10.139,13.519-14.87L118.96,189.254z M471.108,0
	c-12.166,0-23.657,0.676-35.146,1.352c-12.166,0.676-23.657,2.704-35.147,4.731l31.092,234.54
	c6.759-0.676,12.842-1.352,19.602-2.028c6.759-0.676,13.518-0.676,19.601-0.676V0L471.108,0z M184.523,112.201
	c-8.11,7.435-16.222,15.546-24.333,24.333c-7.435,8.111-14.87,16.898-21.629,25.684l132.479,151.403
	c4.73-4.055,10.139-8.787,15.546-12.842c5.407-4.055,10.814-8.111,16.222-11.49L184.523,112.201z"/>
<path fill="#2F3192" d="M656.306,782.701c-5.407,4.055-10.815,8.111-16.222,11.49c-5.407,3.379-10.815,7.435-16.898,10.814
	l50.017,86.516l18.25-20.276c5.407-6.759,11.49-14.194,16.223-20.953L656.306,782.701L656.306,782.701z M699.564,742.146
	c-4.055,4.731-8.787,10.14-13.518,14.194c-4.731,4.731-9.464,9.463-14.194,13.519l50.693,58.128
	c4.73-7.436,8.787-14.87,12.842-22.306c4.055-7.435,8.111-14.87,11.49-22.305L699.564,742.146L699.564,742.146z M302.131,794.191
	c-5.407-3.381-10.815-7.436-16.222-11.49L147.348,963.168c10.139,6.083,20.277,11.49,30.416,16.898
	c10.139,5.407,20.953,10.139,31.769,14.193l109.496-189.254C313.621,801.626,307.538,798.247,302.131,794.191z M354.851,822.58
	l-18.25-8.111l-94.627,191.282c10.815,3.38,21.629,6.083,33.119,8.787c10.815,2.704,22.305,4.055,33.119,6.083l64.887-190.606
	c-6.083-2.704-12.166-5.406-18.25-7.435H354.851z M605.613,814.469l-18.25,8.111c-6.084,2.704-12.166,4.73-18.925,6.759
	l39.879,117.608c8.111-5.407,15.546-11.49,22.981-17.574c7.435-6.084,14.193-12.166,21.629-18.925L605.613,814.469L605.613,814.469z
	 M256.169,756.341c-4.731-4.73-9.463-9.463-13.519-14.194L64.887,898.282c8.111,8.11,16.898,16.222,25.684,24.333
	c8.787,7.435,18.25,14.87,27.713,21.629l152.755-173.708C265.631,765.805,260.899,761.073,256.169,756.341L256.169,756.341z
	 M218.318,710.379c-3.38-5.407-7.435-10.814-10.814-16.897L-0.001,813.793c6.083,10.139,12.166,20.277,18.925,29.74
	s14.194,18.925,21.629,28.388l189.254-145.32C226.427,721.194,222.372,715.786,218.318,710.379L218.318,710.379z M549.513,835.422
	c-6.083,2.028-12.842,3.38-19.602,4.731c-6.759,1.351-12.842,2.027-19.601,3.38l19.601,147.348
	c9.464-4.055,18.926-8.111,27.712-12.842c8.787-4.73,17.574-9.463,26.36-14.87L549.513,835.422L549.513,835.422z M490.709,844.884
	c-6.76,0.676-13.519,0.676-19.602,0.676c-6.759,0-13.518,0-19.601-0.676l-11.49,172.356c10.814-2.028,20.953-4.056,31.092-6.759
	c10.139-2.704,20.277-5.407,30.416-8.787L490.709,844.884L490.709,844.884z M411.628,839.477c-6.76-1.352-12.843-2.703-19.602-4.73
	l-50.692,187.902c7.435,0.676,15.546,0.676,23.656,0.676h10.14c10.814,0,21.629-0.676,32.443-2.028l23.657-178.44
	c-6.083-0.676-12.842-2.027-19.601-3.38L411.628,839.477z"/>
</svg>
