<?xml version="1.0" encoding="utf-8"?>
<!-- Generator: Adobe Illustrator 16.0.0, SVG Export Plug-In . SVG Version: 6.00 Build 0)  -->
<!DOCTYPE svg PUBLIC "-//W3C//DTD SVG 1.1//EN" "http://www.w3.org/Graphics/SVG/1.1/DTD/svg11.dtd">
<svg version="1.1" id="Layer_1" xmlns="http://www.w3.org/2000/svg" xmlns:xlink="http://www.w3.org/1999/xlink" x="0px" y="0px"
	 width="15.741px" height="18.379px" viewBox="55.216 -0.001 15.741 18.379" enable-background="new 55.216 -0.001 15.741 18.379"
	 xml:space="preserve">
<g>
	
		<linearGradient id="SVGID_1_" gradientUnits="userSpaceOnUse" x1="65.5313" y1="9.2527" x2="67.1119" y2="10.8041" gradientTransform="matrix(0.9998 0.0179 0.0179 -0.9998 -1.2577 14.415)">
		<stop  offset="0" style="stop-color:#ED6B06"/>
		<stop  offset="1" style="stop-color:#F3934A"/>
	</linearGradient>
	<path fill="url(#SVGID_1_)" d="M70.954,8.983c-0.062-1.677-1.129-2.516-2.47-3.145c-2.36-1.108-2.676-1.26-4.119-3.799
		c-2.588-4.546-7.971-0.541-5.395,2.72c1.553,1.965,5.438,0.688,5.727,4.145c-0.002,0.091,0.002,0.18,0.009,0.267
		c-0.033,1.833-1.812,2.568-3.308,2.982c-6.246,1.734-0.731,9.511,2.832,4.646c0.681-0.934,0.645-2.136,1.394-2.976
		c1.251-1.4,2.688-1.078,4.046-2.097c0.751-0.484,1.29-1.682,1.287-2.877"/>
</g>
<linearGradient id="SVGID_2_" gradientUnits="userSpaceOnUse" x1="56.3672" y1="6.407" x2="62.3057" y2="6.407" gradientTransform="matrix(0.9998 0.0179 0.0179 -0.9998 -1.2577 14.415)">
	<stop  offset="0" style="stop-color:#ED6B06"/>
	<stop  offset="1" style="stop-color:#F3934A"/>
</linearGradient>
<path fill="url(#SVGID_2_)" d="M61.141,9.151c-0.154-3.676-3.832-3.029-3.832-3.029s-2.69,0.403-1.97,3.794
	c0.175,0.813,1.004,2.381,3.562,2.118c1.035-0.106,2.224-1.349,2.246-2.689L61.141,9.151z"/>
</svg>
